<?xml version="1.0" encoding="UTF-8" standalone="no"?>
<svg
   xmlns:dc="http://purl.org/dc/elements/1.1/"
   xmlns:cc="http://creativecommons.org/ns#"
   xmlns:rdf="http://www.w3.org/1999/02/22-rdf-syntax-ns#"
   xmlns:svg="http://www.w3.org/2000/svg"
   xmlns="http://www.w3.org/2000/svg"
   xmlns:sodipodi="http://sodipodi.sourceforge.net/DTD/sodipodi-0.dtd"
   xmlns:inkscape="http://www.inkscape.org/namespaces/inkscape"
   height="48"
   width="48"
   version="1.1"
   id="svg31"
   sodipodi:docname="gnome-window-manager.svg"
   inkscape:version="0.92.2 2405546, 2018-03-11">
  <metadata
     id="metadata37">
    <rdf:RDF>
      <cc:Work
         rdf:about="">
        <dc:format>image/svg+xml</dc:format>
        <dc:type
           rdf:resource="http://purl.org/dc/dcmitype/StillImage" />
      </cc:Work>
    </rdf:RDF>
  </metadata>
  <defs
     id="defs35" />
  <sodipodi:namedview
     pagecolor="#ffffff"
     bordercolor="#666666"
     borderopacity="1"
     objecttolerance="10"
     gridtolerance="10"
     guidetolerance="10"
     inkscape:pageopacity="0"
     inkscape:pageshadow="2"
     inkscape:window-width="1600"
     inkscape:window-height="838"
     id="namedview33"
     showgrid="false"
     inkscape:zoom="13.906433"
     inkscape:cx="19.833653"
     inkscape:cy="20.280439"
     inkscape:window-x="0"
     inkscape:window-y="36"
     inkscape:window-maximized="1"
     inkscape:current-layer="svg31" />
  <linearGradient
     gradientUnits="userSpaceOnUse"
     x1="0"
     x2="47"
     y1="23.5"
     y2="23.5"
     id="linearGradient8">
    <stop
       offset="0"
       stop-color="#a9a3d4"
       id="stop2" />
    <stop
       offset=".47001833"
       stop-color="#87baff"
       id="stop4" />
    <stop
       offset="1"
       stop-color="#89ec85"
       id="stop6" />
  </linearGradient>
  <linearGradient
     id="a"
     gradientTransform="matrix(1.0000001,0,0,0.97651016,-384.57147,-488.97066)"
     gradientUnits="userSpaceOnUse"
     x1="409.57144"
     x2="409.93887"
     y1="542.79797"
     y2="501.2316">
    <stop
       offset="0"
       stop-color="#566069"
       id="stop10" />
    <stop
       offset="1"
       stop-color="#6c7884"
       id="stop12" />
  </linearGradient>
  <rect
     style="fill-opacity:0.66666697;stroke-width:1.58090603"
     id="rect15"
     y="7.8996234"
     x="2.0000007"
     width="44"
     ry="1.5624164"
     height="33.201347" />
  <rect
     style="fill:url(#a);stroke-width:1.58090603"
     id="rect17"
     y="6.899282"
     x="2.0000007"
     width="44"
     ry="1.5624164"
     height="33.201347" />
  <path
     d="m 34.012958,23.459752 c -0.06798,-0.09 -0.156703,-0.14196 -0.266786,-0.15876 l -2.324682,-0.3558 c -0.127077,-0.40644 -0.300778,-0.8214 -0.520944,-1.244759 0.152338,-0.2118 0.380925,-0.51024 0.685757,-0.89568 0.304832,-0.38544 0.520788,-0.66684 0.647868,-0.8448 0.06782,-0.0924 0.101508,-0.19056 0.101508,-0.2922 0,-0.1188 -0.02946,-0.21156 -0.08887,-0.27936 -0.304832,-0.43224 -1.003531,-1.15188 -2.096095,-2.159759 -0.101352,-0.0852 -0.20738,-0.12696 -0.317307,-0.12696 -0.127078,0 -0.228741,0.0384 -0.304989,0.114 l -1.803737,1.359239 c -0.3474,-0.17796 -0.72848,-0.33456 -1.143395,-0.47004 L 26.22562,15.767514 c -0.0084,-0.1104 -0.05722,-0.20124 -0.146102,-0.27312 -0.08904,-0.072 -0.192567,-0.108 -0.311381,-0.108 h -2.820055 c -0.245581,0 -0.398076,0.1188 -0.457327,0.35556 -0.110088,0.42336 -0.232951,1.21092 -0.36845,2.362799 -0.398075,0.1272 -0.783366,0.28812 -1.156026,0.48288 l -1.75306,-1.359359 c -0.110088,-0.0852 -0.220166,-0.12696 -0.33025,-0.12696 -0.18633,0 -0.586431,0.30264 -1.200464,0.908279 -0.614031,0.60564 -1.030973,1.0608 -1.251295,1.3656 -0.07625,0.1104 -0.114288,0.20748 -0.114288,0.2922 0,0.102 0.04225,0.20328 0.126923,0.3048 0.567412,0.68616 1.020528,1.27032 1.359353,1.7532 -0.211748,0.389519 -0.376871,0.779159 -0.495373,1.168679 l -2.362884,0.35568 c -0.09309,0.0168 -0.173544,0.072 -0.241371,0.16524 -0.06783,0.0924 -0.101663,0.19056 -0.101663,0.29208 v 2.820239 c 0,0.1104 0.03383,0.20952 0.101663,0.29832 0.06783,0.09 0.156704,0.14232 0.266787,0.15912 l 2.324838,0.34308 c 0.1185,0.41484 0.292047,0.834 0.520787,1.25736 -0.152337,0.2118 -0.38108,0.51024 -0.685912,0.89568 -0.304833,0.385439 -0.520944,0.666839 -0.647867,0.844799 -0.06782,0.0924 -0.101664,0.19056 -0.101664,0.2922 0,0.1104 0.02963,0.20736 0.08887,0.29196 0.330248,0.45744 1.028947,1.16904 2.096096,2.13432 0.09324,0.0924 0.199116,0.13968 0.317618,0.13968 0.127079,0 0.232952,-0.0384 0.317619,-0.114 l 1.791262,-1.35948 c 0.347401,0.17796 0.72848,0.33456 1.143397,0.47028 l 0.355664,2.337359 c 0.0086,0.1104 0.05723,0.201 0.146101,0.27312 0.08887,0.072 0.192724,0.108 0.311226,0.108 h 2.820211 c 0.245893,0 0.398231,-0.1188 0.457638,-0.35568 0.109932,-0.42348 0.23264,-1.210919 0.368138,-2.362679 0.398076,-0.12708 0.783521,-0.28824 1.156026,-0.48288 l 1.753217,1.37208 c 0.1185,0.0756 0.228741,0.114 0.330249,0.114 0.186174,0 0.584249,-0.30036 1.193914,-0.9018 0.609978,-0.60132 1.029103,-1.05876 1.257533,-1.3722 0.07625,-0.0852 0.114456,-0.18192 0.114456,-0.29196 0,-0.1104 -0.04225,-0.21636 -0.127078,-0.31776 -0.609666,-0.745199 -1.062782,-1.329479 -1.359352,-1.753079 0.169334,-0.31332 0.334615,-0.69864 0.495529,-1.15596 l 2.350097,-0.35544 c 0.101496,-0.0168 0.186486,-0.072 0.254156,-0.16536 0.06768,-0.0936 0.101352,-0.1908 0.101352,-0.29232 v -2.819999 c 1.56e-4,-0.1104 -0.03353,-0.2094 -0.101508,-0.29844 z m -7.355123,3.982559 c -0.635081,0.63516 -1.401606,0.9528 -2.299421,0.9528 -0.897814,0 -1.664184,-0.31764 -2.299421,-0.9528 -0.635082,-0.63516 -0.9527,-1.40148 -0.9527,-2.299319 0,-0.89772 0.317462,-1.66416 0.9527,-2.29932 0.635237,-0.63516 1.401763,-0.95268 2.299421,-0.95268 0.897815,0 1.66434,0.31752 2.299421,0.95268 0.635081,0.63516 0.9527,1.4016 0.9527,2.29932 0,0.897839 -0.317619,1.664159 -0.9527,2.299319 z"
     id="path19"
     inkscape:connector-curvature="0"
     style="fill:#ffffff;fill-opacity:0.851852;stroke-width:0.20541836" />
  <circle
     cx="14.365745"
     cy="10.399672"
     r="1.781426"
     id="circle21"
     style="fill:#ffffff;fill-opacity:0.29752067;stroke-width:1.58090603" />
  <circle
     cx="9.9893541"
     cy="10.437465"
     r="1.781426"
     id="circle23"
     style="fill:#ffffff;fill-opacity:0.29752067;stroke-width:1.58090603" />
  <circle
     cx="5.6874199"
     cy="10.479579"
     r="1.781426"
     id="circle25"
     style="fill:#ffffff;fill-opacity:0.29752067;stroke-width:1.58090603" />
</svg>
