<?xml version="1.0" encoding="UTF-8" standalone="no"?>
<svg
   xmlns:dc="http://purl.org/dc/elements/1.1/"
   xmlns:cc="http://creativecommons.org/ns#"
   xmlns:rdf="http://www.w3.org/1999/02/22-rdf-syntax-ns#"
   xmlns:svg="http://www.w3.org/2000/svg"
   xmlns="http://www.w3.org/2000/svg"
   xmlns:sodipodi="http://sodipodi.sourceforge.net/DTD/sodipodi-0.dtd"
   xmlns:inkscape="http://www.inkscape.org/namespaces/inkscape"
   height="48"
   width="48"
   version="1.1"
   id="svg31"
   sodipodi:docname="input-tablet.svg"
   inkscape:version="0.92.2 2405546, 2018-03-11">
  <metadata
     id="metadata37">
    <rdf:RDF>
      <cc:Work
         rdf:about="">
        <dc:format>image/svg+xml</dc:format>
        <dc:type
           rdf:resource="http://purl.org/dc/dcmitype/StillImage" />
      </cc:Work>
    </rdf:RDF>
  </metadata>
  <defs
     id="defs35" />
  <sodipodi:namedview
     pagecolor="#ffffff"
     bordercolor="#666666"
     borderopacity="1"
     objecttolerance="10"
     gridtolerance="10"
     guidetolerance="10"
     inkscape:pageopacity="0"
     inkscape:pageshadow="2"
     inkscape:window-width="1600"
     inkscape:window-height="838"
     id="namedview33"
     showgrid="false"
     inkscape:zoom="9.8333333"
     inkscape:cx="23.920926"
     inkscape:cy="21.01441"
     inkscape:window-x="0"
     inkscape:window-y="36"
     inkscape:window-maximized="1"
     inkscape:current-layer="svg31" />
  <linearGradient
     gradientUnits="userSpaceOnUse"
     x1="0"
     x2="47"
     y1="23.5"
     y2="23.5"
     id="linearGradient8">
    <stop
       offset="0"
       stop-color="#a9a3d4"
       id="stop2" />
    <stop
       offset=".47001833"
       stop-color="#87baff"
       id="stop4" />
    <stop
       offset="1"
       stop-color="#89ec85"
       id="stop6" />
  </linearGradient>
  <linearGradient
     id="a"
     gradientUnits="userSpaceOnUse"
     x1="17.287990377108"
     x2="17.287990377108"
     y1="1040.175637794879"
     y2="1013.684047876202"
     gradientTransform="matrix(1.1999997,0,0,1.1999997,3.1768609,-1208.2083)">
    <stop
       offset="0"
       stop-color="#2e3e46"
       id="stop10" />
    <stop
       offset="1"
       stop-color="#47606a"
       id="stop12" />
  </linearGradient>
  <rect
     style="fill-opacity:0.66666697;stroke-width:1.58090603"
     id="rect15"
     y="8.3997211"
     x="2.0000033"
     width="44"
     ry="1.5624164"
     height="33.201344" />
  <rect
     style="fill:url(#a);stroke-width:1.58090603"
     id="rect17"
     y="7.3994527"
     x="2.0000033"
     width="44"
     ry="1.5624164"
     height="33.201344" />
  <path
     d="m 22.145214,34.538629 c -0.02801,0 -0.05603,0 -0.08404,-0.012 -0.09931,-0.0228 -0.185893,-0.0852 -0.240218,-0.17052 -0.631527,-1.010159 1.505818,-2.591519 6.533417,-5.955358 1.345389,-0.90156 2.990415,-2.00076 4.114261,-2.862359 -1.139124,0.734279 -2.673803,1.762199 -4.101529,2.718839 -6.348373,4.251839 -7.727716,5.092919 -8.197966,4.991159 -0.101016,-0.0216 -0.217299,-0.1008 -0.272473,-0.18936 -0.110352,-0.17568 -0.05941,-0.4074 0.114588,-0.522 6.01818,-3.937679 12.205276,-8.463598 13.827383,-10.345558 -2.553269,1.54404 -10.030582,6.269519 -15.227097,9.571438 -0.08658,0.054 -0.189288,0.0744 -0.28945,0.0504 -0.09931,-0.0216 -0.185045,-0.084 -0.23937,-0.16884 -0.08658,-0.13836 -0.17316,-0.37188 -0.09592,-0.69948 0.09422,-0.39984 0.444786,-0.89208 0.996523,-1.456559 -0.587388,0.373439 -1.158649,0.739319 -1.705293,1.088999 -0.08658,0.054 -0.190137,0.072 -0.28945,0.0528 -0.100164,-0.0216 -0.185893,-0.0852 -0.240217,-0.17064 -0.06791,-0.1092 -0.136662,-0.29376 -0.07385,-0.55092 0.06706,-0.275879 0.33274,-0.647639 0.752909,-1.083119 -1.188357,0.72576 -1.364064,0.75468 -1.52619,0.72156 -0.100164,-0.0216 -0.196079,-0.0888 -0.250404,-0.17652 -1.029626,-1.64592 4.088796,-5.438519 13.278193,-11.433718 0.937952,-0.612839 1.844499,-1.202879 2.417457,-1.595879 -1.670491,0.49068 -6.210015,3.443759 -11.145091,7.031758 -1.130638,0.85644 -2.392842,1.80372 -3.800197,2.853719 -0.457516,0.34044 -0.88193,0.657 -1.195996,0.89388 -0.185044,0.1434 -0.369239,0.2868 -0.553435,0.43032 -0.08573,0.066 -0.196079,0.0888 -0.301333,0.0744 -0.106104,-0.018 -0.200323,-0.0828 -0.257195,-0.174 -0.09931,-0.1596 -0.147695,-0.2376 0.106104,-0.48216 l -0.01613,-0.0204 c 0.582295,-0.45336 2.864789,-2.222279 5.629417,-4.235639 2.665315,-2.017679 5.790695,-4.431719 7.617369,-6.014878 -1.745187,1.0908 -4.328166,2.740919 -6.572463,4.173719 -7.475615,4.774679 -7.483254,4.774679 -7.733658,4.713599 -0.09931,-0.0216 -0.187591,-0.0852 -0.241916,-0.17064 -0.385367,-0.61716 0.367542,-1.44816 6.397605,-6.124319 0.665481,-0.51612 1.37425,-1.06524 1.953998,-1.526999 -1.500724,0.902279 -3.806137,2.594039 -5.246595,3.650759 -2.829988,2.077079 -3.229785,2.330039 -3.549793,2.269799 -0.104406,-0.0192 -0.215602,-0.0936 -0.272473,-0.18504 -0.371786,-0.59424 0.386216,-1.19688 4.080309,-3.739919 0.327647,-0.22668 0.6867,-0.47364 1.054242,-0.72828 -4.580267,2.977679 -4.906217,3.078599 -5.166807,3.021719 -0.100161,-0.0216 -0.198625,-0.0912 -0.253799,-0.1782 -0.170614,-0.272519 -0.221543,-0.353159 2.828289,-3.153359 -1.171379,0.73416 -2.084717,1.20696 -2.403027,1.15188 -0.103556,-0.0192 -0.243613,-0.1128 -0.299635,-0.20208 -0.121382,-0.19356 -0.375182,-0.60096 1.668792,-2.819759 l 0.119685,-0.62388 -0.07555,0.37428 -0.210509,-0.3174 c 0.02122,-0.0168 0.07215,-0.0564 0.143452,-0.1128 1.313134,-1.04496 1.679826,-1.20288 1.970973,-1.15524 0.106956,0.018 0.249556,0.1116 0.307276,0.2028 0.09506,0.15276 0.0713,0.35064 -0.05687,0.47712 -1.122149,1.09572 -2.334272,2.409719 -2.883462,3.166919 1.162892,-0.63072 3.660987,-2.319839 5.896796,-3.940199 0.164672,-0.12 0.393007,-0.0888 0.52118,0.0684 0.128172,0.15708 0.110352,0.38712 -0.0399,0.52296 -1.392075,1.26132 -3.267982,2.975159 -4.705045,4.308599 1.370854,-0.87084 3.006544,-1.94208 4.132087,-2.679719 2.436131,-1.59408 2.432737,-1.58988 2.621176,-1.54992 0.100164,0.0216 0.187591,0.0852 0.242765,0.17136 0.175706,0.28188 0.107796,0.59844 -0.290299,1.05264 0.642561,-0.33792 1.0848,-0.47628 1.372552,-0.42024 0.164673,0.0312 0.301333,0.12312 0.385367,0.25644 0.247858,0.39636 0.263137,0.42012 -3.374933,3.240719 -1.397168,1.08228 -3.380027,2.620319 -4.722022,3.780719 1.456586,-0.915 3.512444,-2.228999 5.421455,-3.447959 8.659727,-5.530079 8.703017,-5.517359 8.960212,-5.464679 0.09931,0.0216 0.188439,0.0852 0.242763,0.17136 0.171463,0.27504 0.331043,0.52968 -1.635688,2.25792 1.846198,-1.0788 3.345226,-1.74852 4.025984,-1.63224 0.300485,0.0528 0.456669,0.21552 0.536458,0.342 0.252102,0.40488 0.252102,0.40488 -3.228935,2.674679 -3.199227,2.08728 -12.493028,8.150398 -13.067684,10.043278 1.156951,-0.65184 4.587907,-2.893559 7.663205,-4.903679 8.584183,-5.609879 9.618902,-6.194638 9.994932,-6.113998 0.100164,0.0216 0.201172,0.0924 0.256345,0.17988 0.05432,0.0876 0.0713,0.192719 0.04838,0.292079 -0.02377,0.0996 -0.08827,0.18588 -0.174858,0.2376 -6.739681,4.041239 -13.683081,8.665678 -15.915495,10.802998 15.895973,-10.164718 16.132795,-10.101838 16.321235,-10.055158 0.09931,0.0216 0.190137,0.0852 0.243613,0.17232 0.05432,0.0864 0.07214,0.1944 0.04924,0.29532 -0.05432,0.23004 -0.05518,0.2352 -2.708606,1.85988 -3.554885,2.175479 -11.50754,7.045198 -13.071078,9.236877 15.32641,-9.740277 15.482594,-9.701277 15.685463,-9.665517 0.09931,0.0228 0.186742,0.0852 0.241067,0.17136 0.406588,0.65028 -0.961721,2.141639 -3.118588,3.941159 1.85214,-1.2036 2.172147,-1.32672 2.393691,-1.28004 0.101004,0.0216 0.20287,0.0912 0.258892,0.18 0.516086,0.82752 -1.051697,1.981079 -5.665068,5.067479 -1.67813,1.122959 -4.157552,2.781599 -5.448617,3.907919 8.427998,-5.379839 8.546834,-5.356919 8.746307,-5.318759 0.09846,0.0216 0.187591,0.0852 0.241067,0.17064 0.112896,0.17916 0.05772,0.4134 -0.120533,0.52632 -0.0348,0.0204 -0.0713,0.0372 -0.108648,0.048 -0.583992,0.28608 -6.108154,3.785759 -9.737736,6.105598 -0.06791,0.0396 -0.139208,0.0588 -0.211358,0.0588 z"
     id="path25"
     inkscape:connector-curvature="0"
     style="fill:#ffffff;fill-opacity:0.85204103;stroke-width:1.11826289" />
</svg>
