<?xml version="1.0" encoding="UTF-8" standalone="no"?>
<svg
   xmlns:dc="http://purl.org/dc/elements/1.1/"
   xmlns:cc="http://creativecommons.org/ns#"
   xmlns:rdf="http://www.w3.org/1999/02/22-rdf-syntax-ns#"
   xmlns:svg="http://www.w3.org/2000/svg"
   xmlns="http://www.w3.org/2000/svg"
   xmlns:sodipodi="http://sodipodi.sourceforge.net/DTD/sodipodi-0.dtd"
   xmlns:inkscape="http://www.inkscape.org/namespaces/inkscape"
   height="48"
   width="48"
   version="1.1"
   id="svg37"
   sodipodi:docname="mate-panel-window-list.svg"
   inkscape:version="0.92.2 2405546, 2018-03-11">
  <metadata
     id="metadata43">
    <rdf:RDF>
      <cc:Work
         rdf:about="">
        <dc:format>image/svg+xml</dc:format>
        <dc:type
           rdf:resource="http://purl.org/dc/dcmitype/StillImage" />
      </cc:Work>
    </rdf:RDF>
  </metadata>
  <defs
     id="defs41" />
  <sodipodi:namedview
     pagecolor="#ffffff"
     bordercolor="#666666"
     borderopacity="1"
     objecttolerance="10"
     gridtolerance="10"
     guidetolerance="10"
     inkscape:pageopacity="0"
     inkscape:pageshadow="2"
     inkscape:window-width="1600"
     inkscape:window-height="838"
     id="namedview39"
     showgrid="false"
     inkscape:zoom="9.8333333"
     inkscape:cx="14.611652"
     inkscape:cy="35.323971"
     inkscape:window-x="0"
     inkscape:window-y="36"
     inkscape:window-maximized="1"
     inkscape:current-layer="svg37" />
  <linearGradient
     id="a"
     gradientTransform="matrix(0.99999992,0,0,0.97650999,-384.57141,-488.94862)"
     gradientUnits="userSpaceOnUse"
     x1="409.57144"
     x2="409.57144"
     y1="542.79797"
     y2="507.798">
    <stop
       offset="0"
       stop-color="#566069"
       id="stop2" />
    <stop
       offset="1"
       stop-color="#6c7884"
       id="stop4" />
  </linearGradient>
  <linearGradient
     id="b"
     gradientUnits="userSpaceOnUse"
     x1="371.647015773641"
     x2="371.188124314451"
     y1="546.473296635663"
     y2="497.234375569857"
     gradientTransform="matrix(0.65762761,0,0,0.65762761,-221.09991,-319.29874)">
    <stop
       offset="0"
       stop-color="#ccc"
       id="stop7" />
    <stop
       offset="1"
       stop-color="#f5f2f5"
       id="stop9" />
  </linearGradient>
  <linearGradient
     id="c"
     gradientUnits="userSpaceOnUse"
     x1="234.388113922608"
     x2="234.388113922608"
     y1="516.508724331754"
     y2="445.788334731754"
     gradientTransform="matrix(0.65762761,0,0,0.65762761,-221.09991,-319.29874)">
    <stop
       offset="0"
       stop-color="#3889e9"
       id="stop12" />
    <stop
       offset="1"
       stop-color="#5ea5fb"
       id="stop14" />
  </linearGradient>
  <rect
     style="fill-opacity:0.66666697;stroke-width:0.65762758"
     id="rect17"
     y="7.8774581"
     x="2.000016"
     width="43.999996"
     ry="1.5624161"
     height="33.20134" />
  <rect
     style="fill:url(#a);stroke-width:0.65762758"
     id="rect19"
     y="6.9212008"
     x="2.000016"
     width="43.999996"
     ry="1.5624161"
     height="33.20134" />
  <g
     style="fill:#ffffff;fill-opacity:0.24793388"
     id="g27"
     transform="matrix(0.65762761,0,0,0.65762761,-221.09991,-319.29874)">
    <circle
       style="fill-opacity:0.24793388;fill:#ffffff"
       id="circle21"
       r="2.7088671"
       cy="501.34467"
       cx="358.05319" />
    <circle
       style="fill-opacity:0.24793388;fill:#ffffff"
       id="circle23"
       r="2.7088671"
       cy="501.40213"
       cx="351.39838" />
    <circle
       style="fill-opacity:0.24793388;fill:#ffffff"
       id="circle25"
       r="2.7088671"
       cy="501.46628"
       cx="344.85678" />
  </g>
  <path
     inkscape:connector-curvature="0"
     style="fill:url(#b);stroke-width:0.65762758"
     id="path29"
     d="m 2.1027545,35.973456 c -0.036564,0 -0.067242,0.01835 -0.1027543,0.02242 v 2.565044 c 0,0.865576 0.6962435,1.561819 1.5618196,1.561819 H 44.438176 c 0.865576,0 1.56182,-0.696243 1.56182,-1.561819 v -2.587469 z" />
  <circle
     style="fill:url(#c);stroke-width:0.65762758"
     id="circle31"
     r="0"
     cy="-2.8822832"
     cx="-65.29892" />
  <path
     style="fill:#ffffff;fill-opacity:0.85483901;fill-rule:evenodd;stroke-width:0.65762758"
     inkscape:connector-curvature="0"
     id="path33"
     d="m 24.031117,14.527489 c -2.854492,0 -5.386733,1.352681 -7.022687,3.442773 l 1.121111,0.714184 c 1.399142,-1.718388 3.536445,-2.813265 5.918812,-2.813265 4.212414,0 7.63196,3.427785 7.63196,7.652187 0,4.221404 -3.419546,7.649196 -7.63196,7.649196 -2.374121,0 -4.503933,-1.088893 -5.904575,-2.798285 l -1.12111,0.714184 c 1.641945,2.084101 4.165952,3.427785 7.022687,3.427785 4.944583,0 8.954658,-4.028061 8.954658,-8.99288 0,-4.96182 -4.013073,-8.989881 -8.954658,-8.989881 m -9.045339,3.74104 v 10.491685 l 9.098547,-5.298301 m -0.06745,-5.427204 c -1.609728,0 -3.056081,0.699946 -4.060285,1.809068 l 1.162331,0.726179 c 0.746407,-0.740417 1.770846,-1.194555 2.900953,-1.194555 2.286439,0 4.141969,1.873516 4.141969,4.180191 0,2.309667 -1.853287,4.183182 -4.141969,4.183182 -1.150342,0 -2.189769,-0.471374 -2.939175,-1.235018 l -1.12111,0.714183 c 1.004204,1.109122 2.447558,1.809068 4.060285,1.809068 3.027599,0 5.482654,-2.464801 5.482654,-5.497648 0,-3.035846 -2.455798,-5.497649 -5.482654,-5.497649 m -0.0033,0.0033" />
</svg>
