<?xml version="1.0" encoding="UTF-8" standalone="no"?>
<svg
   xmlns:dc="http://purl.org/dc/elements/1.1/"
   xmlns:cc="http://creativecommons.org/ns#"
   xmlns:rdf="http://www.w3.org/1999/02/22-rdf-syntax-ns#"
   xmlns:svg="http://www.w3.org/2000/svg"
   xmlns="http://www.w3.org/2000/svg"
   xmlns:sodipodi="http://sodipodi.sourceforge.net/DTD/sodipodi-0.dtd"
   xmlns:inkscape="http://www.inkscape.org/namespaces/inkscape"
   height="48"
   width="48"
   version="1.1"
   id="svg38"
   sodipodi:docname="preferences-desktop-plasma.svg"
   inkscape:version="0.92.2 2405546, 2018-03-11">
  <metadata
     id="metadata44">
    <rdf:RDF>
      <cc:Work
         rdf:about="">
        <dc:format>image/svg+xml</dc:format>
        <dc:type
           rdf:resource="http://purl.org/dc/dcmitype/StillImage" />
      </cc:Work>
    </rdf:RDF>
  </metadata>
  <defs
     id="defs42" />
  <sodipodi:namedview
     pagecolor="#ffffff"
     bordercolor="#666666"
     borderopacity="1"
     objecttolerance="10"
     gridtolerance="10"
     guidetolerance="10"
     inkscape:pageopacity="0"
     inkscape:pageshadow="2"
     inkscape:window-width="797"
     inkscape:window-height="480"
     id="namedview40"
     showgrid="false"
     inkscape:zoom="4.9166667"
     inkscape:cx="24"
     inkscape:cy="24"
     inkscape:window-x="0"
     inkscape:window-y="36"
     inkscape:window-maximized="0"
     inkscape:current-layer="svg38" />
  <linearGradient
     gradientUnits="userSpaceOnUse"
     x1="0"
     x2="47"
     y1="23.5"
     y2="23.5"
     id="linearGradient8">
    <stop
       offset="0"
       stop-color="#a9a3d4"
       id="stop2" />
    <stop
       offset=".47001833"
       stop-color="#87baff"
       id="stop4" />
    <stop
       offset="1"
       stop-color="#89ec85"
       id="stop6" />
  </linearGradient>
  <linearGradient
     id="a"
     gradientTransform="matrix(0.79189172,0,0,0.79189174,-266.49122,607.29445)"
     gradientUnits="userSpaceOnUse"
     x1="357.30374"
     x2="357.30374"
     y1="547.43585"
     y2="513.9823">
    <stop
       offset="0"
       stop-color="#197cf1"
       id="stop10" />
    <stop
       offset="1"
       stop-color="#20bcfa"
       id="stop12" />
  </linearGradient>
  <linearGradient
     id="b"
     gradientTransform="matrix(0.89999466,0,0,0.8972207,433.59453,140.64464)"
     gradientUnits="userSpaceOnUse"
     x1="8.59486"
     x2="8.59486"
     y1="1050.3145"
     y2="1038.3145">
    <stop
       offset="0"
       stop-color="#fff"
       stop-opacity="0"
       id="stop15" />
    <stop
       offset="1"
       stop-color="#d5edff"
       id="stop17" />
  </linearGradient>
  <g
     style="stroke-width:1.31742203"
     id="g24"
     transform="matrix(1.1999997,0,0,1.1999997,4.1768578,-1209.4627)">
    <rect
       style="fill-opacity:0.66666697"
       id="rect20"
       y="1014.4686"
       x="-1.8140481"
       width="36.666676"
       ry="1.302014"
       height="27.667793" />
    <rect
       style="fill:url(#a)"
       id="rect22"
       y="1013.6354"
       x="-1.8140481"
       width="36.666676"
       ry="1.302014"
       height="27.667793" />
  </g>
  <path
     inkscape:connector-curvature="0"
     style="fill:url(#b);stroke-width:1.58090603"
     id="path26"
     d="m 19.049659,15.027354 a 1.3499943,1.3458265 0 0 0 -1.349318,1.34592 1.3499943,1.3458265 0 0 0 1.349318,1.34592 1.3499943,1.3458265 0 0 0 1.351023,-1.34592 1.3499943,1.3458265 0 0 0 -1.351023,-1.34592 z m 7.650683,0 -2.560463,2.55192 3.93878,3.925199 -4.078658,4.626118 2.700341,2.35584 6.299659,-7.178158 z m -9.450341,6.280919 a 2.2499801,2.2430517 0 0 0 -2.25,2.243159 2.2499801,2.2430517 0 0 0 2.25,2.243159 2.2499801,2.2430517 0 0 0 2.25,-2.243159 2.2499801,2.2430517 0 0 0 -2.25,-2.243159 z m 4.049659,6.280918 a 2.6999771,2.6916621 0 0 0 -2.700342,2.691719 2.6999771,2.6916621 0 0 0 2.700342,2.69184 2.6999771,2.6916621 0 0 0 2.700341,-2.69184 2.6999771,2.6916621 0 0 0 -2.700341,-2.691719 z" />
  <g
     style="fill:#ffffff;fill-opacity:0.35470086;stroke-width:1.31742203"
     id="g34"
     transform="matrix(1.1999997,0,0,1.1999997,3.1768609,-1208.2083)">
    <circle
       id="circle28"
       r="1.484522"
       cy="1015.5069"
       cx="9.32407"
       style="fill:#ffffff;fill-opacity:0.35470086" />
    <circle
       id="circle30"
       r="1.484522"
       cy="1015.5384"
       cx="5.6770902"
       style="fill:#ffffff;fill-opacity:0.35470086" />
    <circle
       id="circle32"
       r="1.484522"
       cy="1015.5736"
       cx="2.09214"
       style="fill:#ffffff;fill-opacity:0.35470086" />
  </g>
</svg>
