<?xml version="1.0" encoding="UTF-8" standalone="no"?>
<svg
   xmlns:dc="http://purl.org/dc/elements/1.1/"
   xmlns:cc="http://creativecommons.org/ns#"
   xmlns:rdf="http://www.w3.org/1999/02/22-rdf-syntax-ns#"
   xmlns:svg="http://www.w3.org/2000/svg"
   xmlns="http://www.w3.org/2000/svg"
   xmlns:sodipodi="http://sodipodi.sourceforge.net/DTD/sodipodi-0.dtd"
   xmlns:inkscape="http://www.inkscape.org/namespaces/inkscape"
   height="48"
   width="48"
   version="1.1"
   id="svg29"
   sodipodi:docname="preferences-desktop-peripherals.svg"
   inkscape:version="0.92.2 2405546, 2018-03-11">
  <metadata
     id="metadata35">
    <rdf:RDF>
      <cc:Work
         rdf:about="">
        <dc:format>image/svg+xml</dc:format>
        <dc:type
           rdf:resource="http://purl.org/dc/dcmitype/StillImage" />
      </cc:Work>
    </rdf:RDF>
  </metadata>
  <defs
     id="defs33" />
  <sodipodi:namedview
     pagecolor="#ffffff"
     bordercolor="#666666"
     borderopacity="1"
     objecttolerance="10"
     gridtolerance="10"
     guidetolerance="10"
     inkscape:pageopacity="0"
     inkscape:pageshadow="2"
     inkscape:window-width="1600"
     inkscape:window-height="838"
     id="namedview31"
     showgrid="false"
     inkscape:zoom="9.8333333"
     inkscape:cx="12.000939"
     inkscape:cy="23.878803"
     inkscape:window-x="0"
     inkscape:window-y="36"
     inkscape:window-maximized="1"
     inkscape:current-layer="svg29" />
  <linearGradient
     gradientUnits="userSpaceOnUse"
     x1="0"
     x2="47"
     y1="23.5"
     y2="23.5"
     id="linearGradient8">
    <stop
       offset="0"
       stop-color="#a9a3d4"
       id="stop2" />
    <stop
       offset=".47001833"
       stop-color="#87baff"
       id="stop4" />
    <stop
       offset="1"
       stop-color="#89ec85"
       id="stop6" />
  </linearGradient>
  <linearGradient
     id="a"
     gradientUnits="userSpaceOnUse"
     x1="357.30374"
     x2="357.30374"
     y1="547.43585"
     y2="513.9823"
     gradientTransform="matrix(0.99346388,0,0,0.99346388,-331.04944,-503.12833)">
    <stop
       offset="0"
       stop-color="#2e3e46"
       id="stop10" />
    <stop
       offset="1"
       stop-color="#47606a"
       id="stop12" />
  </linearGradient>
  <rect
     style="fill:url(#a);fill-opacity:1;stroke-width:1.30881119"
     id="rect15"
     y="6.6447639"
     x="1.0000055"
     width="46"
     ry="1.6334354"
     height="34.710495" />
  <circle
     style="fill:#ffffff;fill-opacity:0.33471075;stroke-width:1.16909266"
     cx="5.0845404"
     cy="10.92589"
     r="1.8623993"
     id="circle17" />
  <circle
     style="fill:#ffffff;fill-opacity:0.33471075;stroke-width:1.16909266"
     cx="5.1449561"
     cy="15.895475"
     r="1.8623993"
     id="circle19" />
  <circle
     style="fill:#ffffff;fill-opacity:0.33471075;stroke-width:1.16909266"
     cx="5.1358929"
     cy="20.654129"
     r="1.8623993"
     id="circle21" />
  <path
     style="fill:#ffffff;fill-opacity:0.85204103;stroke-width:1.16909266"
     d="m 22.324388,34.712482 c -0.02928,0 -0.05857,-0.0035 -0.08785,-0.0098 -0.103827,-0.02396 -0.194342,-0.08874 -0.251137,-0.17837 -0.660232,-1.056017 1.574265,-2.709261 6.830391,-6.226064 1.406543,-0.942429 3.126343,-2.091624 4.301273,-2.992345 -1.190903,0.76761 -2.79534,1.842262 -4.287962,2.842373 -6.636935,4.445033 -8.078975,5.324456 -8.5706,5.217967 -0.105602,-0.02218 -0.227177,-0.105602 -0.284859,-0.197892 -0.115363,-0.183694 -0.06212,-0.425957 0.119801,-0.545757 6.291732,-4.116692 12.760059,-8.848359 14.455899,-10.815746 -2.669328,1.614198 -10.486517,6.554406 -15.919238,10.006429 -0.09051,0.05591 -0.197892,0.0772 -0.302606,0.05236 -0.103827,-0.02219 -0.193455,-0.08785 -0.25025,-0.176595 -0.09051,-0.144648 -0.181031,-0.388685 -0.100277,-0.731225 0.0985,-0.41797 0.465003,-0.932667 1.041819,-1.522795 -0.614088,0.39046 -1.211314,0.772934 -1.782806,1.138547 -0.09051,0.05679 -0.198779,0.07543 -0.302606,0.05502 -0.104715,-0.02307 -0.194343,-0.08874 -0.251137,-0.178369 -0.07099,-0.113589 -0.142873,-0.307044 -0.0772,-0.575929 0.07011,-0.288408 0.347865,-0.677093 0.787132,-1.132334 -1.242373,0.758735 -1.426067,0.788907 -1.595562,0.754298 -0.104714,-0.02219 -0.204991,-0.09229 -0.261786,-0.184582 -1.076427,-1.720686 4.274652,-5.685632 13.881746,-11.953404 0.980587,-0.64071 1.92834,-1.257459 2.527342,-1.66833 -1.746422,0.512923 -6.492287,3.60022 -11.651686,7.3513 -1.182029,0.895396 -2.501607,1.885745 -3.972932,2.98347 -0.478313,0.355851 -0.922018,0.686855 -1.250359,0.934442 -0.193456,0.149972 -0.386024,0.299944 -0.578591,0.449917 -0.08963,0.06922 -0.204992,0.09318 -0.315031,0.07809 -0.110926,-0.01952 -0.209428,-0.08608 -0.268885,-0.181919 -0.103827,-0.166833 -0.154409,-0.248475 0.110926,-0.504049 l -0.01686,-0.0213 c 0.608762,-0.473876 2.995006,-2.323237 5.885299,-4.428172 2.786465,-2.109373 6.053907,-4.633165 7.963612,-6.288183 -1.824514,1.140321 -4.524901,2.865444 -6.871211,4.363392 -7.815415,4.991677 -7.823402,4.991677 -8.085187,4.927784 -0.103827,-0.02219 -0.196118,-0.08874 -0.252912,-0.178369 -0.402884,-0.645147 0.384248,-1.513921 6.688405,-6.402659 0.695729,-0.539545 1.436715,-1.113699 2.042816,-1.59645 -1.56894,0.943316 -3.979144,2.711923 -5.485077,3.816748 -2.958623,2.171491 -3.376593,2.435939 -3.711147,2.372933 -0.109151,-0.02041 -0.225401,-0.0985 -0.284858,-0.193455 -0.388685,-0.621187 0.403771,-1.251248 4.265777,-3.909926 0.34254,-0.236939 0.717914,-0.495175 1.102163,-0.761397 -4.788462,3.113032 -5.129227,3.218633 -5.401661,3.159177 -0.104715,-0.02307 -0.207654,-0.09495 -0.265336,-0.186356 -0.178369,-0.284858 -0.231614,-0.369162 2.956848,-3.296726 -1.224625,0.767609 -2.179477,1.261896 -2.512256,1.204215 -0.108264,-0.02041 -0.254686,-0.118026 -0.313255,-0.211204 -0.1269,-0.202329 -0.392235,-0.628286 1.744647,-2.947974 l 0.125124,-0.652246 -0.07898,0.391348 -0.220078,-0.331891 c 0.02219,-0.01686 0.07543,-0.05857 0.149973,-0.118026 1.372822,-1.092401 1.756183,-1.257459 2.060564,-1.207764 0.111814,0.01864 0.260899,0.116251 0.321242,0.212091 0.09939,0.159734 0.07454,0.3665 -0.05946,0.498724 -1.173155,1.145646 -2.440376,2.519355 -3.01453,3.310924 1.215751,-0.659345 3.827397,-2.425289 6.164833,-4.119354 0.172158,-0.125125 0.410871,-0.09229 0.54487,0.07188 0.133998,0.164171 0.115363,0.404659 -0.04171,0.546644 -1.455351,1.318691 -3.416526,3.11037 -4.91891,4.504491 1.433166,-0.910483 3.143204,-2.030393 4.319909,-2.801552 2.546865,-1.666555 2.543315,-1.662118 2.74032,-1.62041 0.104715,0.02307 0.196118,0.08874 0.253799,0.179257 0.183694,0.29462 0.112701,0.625624 -0.303494,1.100388 0.671769,-0.353189 1.13411,-0.497837 1.434941,-0.439268 0.172158,0.03283 0.315031,0.128675 0.402884,0.267998 0.259124,0.41442 0.275097,0.439267 -3.52834,3.388129 -1.460675,1.131447 -3.533664,2.739433 -4.936658,3.952521 1.522795,-0.956627 3.6721,-2.330337 5.667884,-3.604657 9.053351,-5.781472 9.098608,-5.768161 9.367493,-5.713141 0.103827,0.02307 0.197005,0.08963 0.2538,0.179256 0.179256,0.287521 0.346089,0.553744 -1.710038,2.360509 1.930115,-1.127897 3.49728,-1.828063 4.208982,-1.706488 0.314143,0.05591 0.477427,0.225402 0.560843,0.357626 0.263561,0.423294 0.263561,0.423294 -3.375705,2.796227 -3.344646,2.18214 -13.060892,8.520905 -13.661668,10.499828 1.209539,-0.68153 4.796448,-3.025179 8.011532,-5.126564 8.974371,-5.864889 10.056123,-6.476314 10.449246,-6.39201 0.104714,0.02307 0.210316,0.09673 0.267997,0.188131 0.0568,0.0914 0.07454,0.201442 0.05058,0.305269 -0.02485,0.103827 -0.09229,0.194342 -0.182807,0.248474 -7.04603,4.224957 -14.305039,9.059563 -16.638926,11.29406 16.618516,-10.626728 16.866103,-10.561059 17.063108,-10.512252 0.103827,0.02307 0.19878,0.08963 0.254687,0.180144 0.05679,0.09052 0.07543,0.203217 0.05147,0.308819 -0.05679,0.240488 -0.05768,0.245812 -2.831723,1.944314 -3.716471,2.27443 -12.030609,7.365498 -13.665217,9.656789 16.023064,-10.183023 16.186347,-10.142202 16.398438,-10.104931 0.103827,0.02396 0.19523,0.08963 0.252024,0.179257 0.425069,0.679755 -1.005435,2.238933 -3.260342,4.120241 1.936327,-1.258346 2.270881,-1.38702 2.502495,-1.338213 0.105601,0.02219 0.21209,0.09584 0.270659,0.188131 0.539545,0.865224 -1.0995,2.071213 -5.92257,5.297834 -1.754408,1.174043 -4.346531,2.908041 -5.696281,4.085633 8.811088,-5.624401 8.935325,-5.600441 9.143867,-5.560507 0.102939,0.02307 0.196117,0.08874 0.252024,0.178369 0.118025,0.187243 0.06034,0.432168 -0.126012,0.550194 -0.03638,0.0213 -0.07454,0.03905 -0.113589,0.04969 -0.610537,0.299057 -6.385798,3.957845 -10.18036,6.383135 -0.07099,0.04082 -0.145535,0.06212 -0.220965,0.06212 z"
     id="path23"
     inkscape:connector-curvature="0" />
</svg>
