<?xml version="1.0" encoding="UTF-8" standalone="no"?>
<svg
   xmlns:dc="http://purl.org/dc/elements/1.1/"
   xmlns:cc="http://creativecommons.org/ns#"
   xmlns:rdf="http://www.w3.org/1999/02/22-rdf-syntax-ns#"
   xmlns:svg="http://www.w3.org/2000/svg"
   xmlns="http://www.w3.org/2000/svg"
   xmlns:sodipodi="http://sodipodi.sourceforge.net/DTD/sodipodi-0.dtd"
   xmlns:inkscape="http://www.inkscape.org/namespaces/inkscape"
   height="48"
   width="48"
   version="1.1"
   id="svg28"
   sodipodi:docname="preferences-desktop-display.svg"
   inkscape:version="0.92.2 2405546, 2018-03-11">
  <metadata
     id="metadata34">
    <rdf:RDF>
      <cc:Work
         rdf:about="">
        <dc:format>image/svg+xml</dc:format>
        <dc:type
           rdf:resource="http://purl.org/dc/dcmitype/StillImage" />
      </cc:Work>
    </rdf:RDF>
  </metadata>
  <defs
     id="defs32" />
  <sodipodi:namedview
     pagecolor="#ffffff"
     bordercolor="#666666"
     borderopacity="1"
     objecttolerance="10"
     gridtolerance="10"
     guidetolerance="10"
     inkscape:pageopacity="0"
     inkscape:pageshadow="2"
     inkscape:window-width="1600"
     inkscape:window-height="838"
     id="namedview30"
     showgrid="false"
     inkscape:zoom="9.8333333"
     inkscape:cx="22.193866"
     inkscape:cy="26.06922"
     inkscape:window-x="0"
     inkscape:window-y="36"
     inkscape:window-maximized="1"
     inkscape:current-layer="svg28" />
  <linearGradient
     id="a"
     gradientTransform="matrix(0.99999996,0,0,0.97651008,-384.57144,-488.97072)"
     gradientUnits="userSpaceOnUse"
     x1="409.57144"
     x2="409.93887"
     y1="542.79797"
     y2="501.2316">
    <stop
       offset="0"
       stop-color="#00a199"
       id="stop2" />
    <stop
       offset="1"
       stop-color="#00f89a"
       stop-opacity=".988235"
       id="stop4" />
  </linearGradient>
  <linearGradient
     id="b"
     gradientUnits="userSpaceOnUse"
     x1="399.597248159089"
     x2="402.033571439688"
     y1="677.512312996716"
     y2="677.512312996716"
     gradientTransform="translate(-385.1816,-500.71325)">
    <stop
       offset="0"
       stop-color="#e6f3ff"
       id="stop7" />
    <stop
       offset="1"
       stop-color="#dcffe7"
       id="stop9" />
  </linearGradient>
  <rect
     style="fill-opacity:0.66666697"
     id="rect12"
     y="7.8995099"
     x="2.0000117"
     width="44"
     ry="1.562416"
     height="33.201344" />
  <rect
     style="fill:url(#a)"
     id="rect14"
     y="6.8991742"
     x="2.0000117"
     width="44"
     ry="1.562416"
     height="33.201344" />
  <path
     inkscape:connector-curvature="0"
     style="fill:url(#b);stroke-width:0.15592501"
     id="path16"
     d="m 33.402791,22.544376 c -0.068,-0.089 -0.15669,-0.14204 -0.26678,-0.15889 l -2.32468,-0.35566 c -0.12708,-0.40649 -0.30078,-0.82141 -0.52094,-1.2449 0.15233,-0.21175 0.38092,-0.51019 0.68575,-0.89563 0.30483,-0.38545 0.52079,-0.66689 0.64787,-0.8448 0.0678,-0.0933 0.1015,-0.19054 0.1015,-0.29221 0,-0.1185 -0.0295,-0.21158 -0.0889,-0.27941 -0.30482,-0.43207 -1.00352,-1.15182 -2.09609,-2.15972 -0.10135,-0.0847 -0.20737,-0.12692 -0.31731,-0.12692 -0.12707,0 -0.22874,0.0381 -0.30498,0.11414 l -1.80374,1.35935 c -0.3474,-0.17791 -0.72848,-0.33462 -1.14339,-0.47011 l -0.35567,-2.33732 c -0.009,-0.11008 -0.0572,-0.20114 -0.14611,-0.27317 -0.089,-0.072 -0.19256,-0.10791 -0.31137,-0.10791 h -2.82006 c -0.24558,0 -0.39807,0.11851 -0.45732,0.35567 -0.11009,0.42333 -0.23295,1.21091 -0.36845,2.36273 -0.39808,0.12723 -0.78337,0.28814 -1.15603,0.48289 l -1.75306,-1.35935 c -0.11009,-0.0847 -0.22016,-0.12692 -0.33025,-0.12692 -0.18633,0 -0.58643,0.30265 -1.20046,0.90826 -0.61403,0.60561 -1.03098,1.06076 -1.2513,1.36559 -0.0762,0.11009 -0.11429,0.20754 -0.11429,0.2922 0,0.10167 0.0423,0.20333 0.12692,0.30483 0.56741,0.68608 1.02053,1.27032 1.35935,1.75322 -0.21174,0.38951 -0.37687,0.77915 -0.49537,1.16866 l -2.36288,0.35566 c -0.0931,0.017 -0.17355,0.072 -0.24138,0.16528 -0.0678,0.0931 -0.10166,0.19054 -0.10166,0.29205 v 2.8202 c 0,0.11024 0.0339,0.20957 0.10166,0.29845 0.0678,0.0891 0.15671,0.14221 0.2668,0.15904 l 2.32483,0.34304 c 0.11851,0.41491 0.29205,0.83404 0.52079,1.25737 -0.15234,0.21175 -0.38108,0.51018 -0.68591,0.89563 -0.30484,0.38545 -0.52095,0.66689 -0.64787,0.8448 -0.0678,0.0934 -0.10166,0.19054 -0.10166,0.29221 0,0.11008 0.0297,0.20738 0.0889,0.29205 0.33025,0.45747 1.02894,1.16896 2.09609,2.13429 0.0933,0.0933 0.19911,0.13971 0.31761,0.13971 0.12709,0 0.23296,-0.0381 0.31763,-0.11414 l 1.79126,-1.3595 c 0.34739,0.17791 0.72848,0.33461 1.14339,0.47026 l 0.35567,2.33732 c 0.009,0.11008 0.0572,0.20114 0.1461,0.27317 0.0889,0.0722 0.19273,0.10791 0.31123,0.10791 h 2.82021 c 0.24589,0 0.39823,-0.11851 0.45764,-0.35567 0.10992,-0.42349 0.23263,-1.21091 0.36813,-2.36273 0.39808,-0.12707 0.78353,-0.28814 1.15603,-0.4829 l 1.75321,1.37214 c 0.11851,0.0761 0.22875,0.11414 0.33025,0.11414 0.18618,0 0.58426,-0.30047 1.19392,-0.90187 0.60998,-0.60124 1.02911,-1.05873 1.25753,-1.37213 0.0762,-0.0847 0.11445,-0.18197 0.11445,-0.29205 0,-0.11008 -0.0423,-0.21627 -0.12708,-0.31762 -0.60966,-0.74532 -1.06278,-1.32958 -1.35935,-1.75307 0.16934,-0.3134 0.33462,-0.69869 0.49553,-1.15602 l 2.3501,-0.35551 c 0.10151,-0.017 0.18648,-0.0722 0.25416,-0.16543 0.0676,-0.0933 0.10134,-0.1907 0.10134,-0.29221 v -2.82004 c 1.6e-4,-0.11009 -0.0335,-0.20942 -0.10151,-0.29845 z m -7.35511,3.98247 c -0.63509,0.63524 -1.40161,0.95286 -2.29942,0.95286 -0.89782,0 -1.66419,-0.31762 -2.29942,-0.95286 -0.63509,-0.63508 -0.95271,-1.40145 -0.95271,-2.29926 0,-0.89782 0.31746,-1.66418 0.95271,-2.29942 0.63523,-0.63508 1.40176,-0.9527 2.29942,-0.9527 0.89781,0 1.66433,0.31762 2.29942,0.9527 0.63507,0.63524 0.95269,1.4016 0.95269,2.29942 0,0.89781 -0.31762,1.66418 -0.95269,2.29926 z" />
  <g
     style="fill:#ffffff;fill-opacity:0.45454547"
     id="g24"
     transform="translate(-384.57143,-499.798)">
    <circle
       id="circle18"
       r="1.7814257"
       cy="510.1976"
       cx="398.93719"
       style="fill:#ffffff;fill-opacity:0.45454547" />
    <circle
       id="circle20"
       r="1.7814257"
       cy="510.23538"
       cx="394.56079"
       style="fill:#ffffff;fill-opacity:0.45454547" />
    <circle
       id="circle22"
       r="1.7814257"
       cy="510.27756"
       cx="390.25885"
       style="fill:#ffffff;fill-opacity:0.45454547" />
  </g>
</svg>
