<?xml version="1.0" encoding="UTF-8" standalone="no"?>
<svg
   xmlns:dc="http://purl.org/dc/elements/1.1/"
   xmlns:cc="http://creativecommons.org/ns#"
   xmlns:rdf="http://www.w3.org/1999/02/22-rdf-syntax-ns#"
   xmlns:svg="http://www.w3.org/2000/svg"
   xmlns="http://www.w3.org/2000/svg"
   xmlns:sodipodi="http://sodipodi.sourceforge.net/DTD/sodipodi-0.dtd"
   xmlns:inkscape="http://www.inkscape.org/namespaces/inkscape"
   height="48"
   width="48"
   version="1.1"
   id="svg25"
   sodipodi:docname="preferences-system-windows-actions.svg"
   inkscape:version="0.92.2 2405546, 2018-03-11">
  <metadata
     id="metadata31">
    <rdf:RDF>
      <cc:Work
         rdf:about="">
        <dc:format>image/svg+xml</dc:format>
        <dc:type
           rdf:resource="http://purl.org/dc/dcmitype/StillImage" />
      </cc:Work>
    </rdf:RDF>
  </metadata>
  <defs
     id="defs29" />
  <sodipodi:namedview
     pagecolor="#ffffff"
     bordercolor="#666666"
     borderopacity="1"
     objecttolerance="10"
     gridtolerance="10"
     guidetolerance="10"
     inkscape:pageopacity="0"
     inkscape:pageshadow="2"
     inkscape:window-width="1600"
     inkscape:window-height="838"
     id="namedview27"
     showgrid="false"
     inkscape:zoom="9.8333333"
     inkscape:cx="23.204828"
     inkscape:cy="29.059982"
     inkscape:window-x="0"
     inkscape:window-y="36"
     inkscape:window-maximized="1"
     inkscape:current-layer="svg25" />
  <linearGradient
     id="a"
     gradientTransform="matrix(1.5206174,0,0,1.4848982,-250.09828,-256.09816)"
     gradientUnits="userSpaceOnUse"
     x1="409.57144"
     x2="409.57144"
     y1="542.79797"
     y2="507.798">
    <stop
       offset="0"
       stop-color="#566069"
       id="stop2" />
    <stop
       offset="1"
       stop-color="#6c7884"
       id="stop4" />
  </linearGradient>
  <g
     id="g11"
     transform="matrix(0.65762761,0,0,0.65762761,-220.09992,-320.55319)">
    <rect
       style="fill-opacity:0.66666697"
       id="rect7"
       y="499.45044"
       x="337.729"
       width="66.907166"
       ry="2.3758371"
       height="50.486542" />
    <rect
       style="fill:url(#a)"
       id="rect9"
       y="497.93018"
       x="337.729"
       width="66.907166"
       ry="2.3758371"
       height="50.486542" />
  </g>
  <path
     style="fill:#ffffff;fill-opacity:0.84693903;stroke-width:0.17320228"
     inkscape:connector-curvature="0"
     id="path13"
     d="M 34.82998,15.131692 C 34.651235,14.952947 34.439582,14.863575 34.195021,14.863575 H 14.326295 c -0.244734,0 -0.456388,0.08937 -0.635132,0.268117 -0.178745,0.178745 -0.268117,0.390398 -0.268117,0.634959 v 19.868726 c 0,0.244561 0.08937,0.456388 0.268117,0.634959 0.178918,0.178745 0.390571,0.26829 0.635132,0.26829 h 19.868726 c 0.244561,0 0.456214,-0.08955 0.634959,-0.26829 0.178572,-0.178571 0.267944,-0.390398 0.267944,-0.634959 V 15.766651 c 0,-0.244734 -0.0892,-0.456214 -0.267944,-0.634959 z M 23.357581,32.022897 c 0,0.131807 -0.04226,0.239885 -0.126957,0.324581 -0.0847,0.08452 -0.192947,0.126957 -0.324581,0.126957 h -6.773421 c -0.131807,0 -0.239885,-0.04243 -0.324581,-0.126957 -0.08452,-0.0847 -0.126957,-0.192774 -0.126957,-0.324581 V 17.572805 c 0,-0.131807 0.04226,-0.239885 0.126957,-0.324581 0.0847,-0.08452 0.192774,-0.126958 0.324581,-0.126958 h 6.773421 c 0.131634,0 0.239885,0.04244 0.324581,0.126958 0.0847,0.0847 0.126957,0.192774 0.126957,0.324581 z m 9.482825,-5.418806 c 0,0.131807 -0.04226,0.240058 -0.126958,0.324581 -0.08452,0.0847 -0.192774,0.126957 -0.324407,0.126957 h -6.773248 c -0.132154,0 -0.240059,-0.04226 -0.324755,-0.126957 -0.08452,-0.08452 -0.126784,-0.192774 -0.126784,-0.324581 v -9.031286 c 0,-0.131807 0.04226,-0.239885 0.126784,-0.324581 0.0847,-0.08452 0.192601,-0.126958 0.324755,-0.126958 h 6.773248 c 0.131633,0 0.239885,0.04244 0.324407,0.126958 0.0847,0.0847 0.126958,0.192774 0.126958,0.324581 z" />
  <g
     style="fill:#ffffff;fill-opacity:0.30991736;stroke-width:1.31742203"
     id="g21"
     transform="matrix(0.65762761,0,0,0.65762761,-221.09991,-319.29874)">
    <circle
       id="circle15"
       r="2.7088671"
       cy="501.34503"
       cx="358.05319"
       style="fill:#ffffff;fill-opacity:0.30991736" />
    <circle
       id="circle17"
       r="2.7088671"
       cy="501.4025"
       cx="351.39838"
       style="fill:#ffffff;fill-opacity:0.30991736" />
    <circle
       id="circle19"
       r="2.7088671"
       cy="501.46664"
       cx="344.85678"
       style="fill:#ffffff;fill-opacity:0.30991736" />
  </g>
</svg>
