<?xml version="1.0" encoding="UTF-8" standalone="no"?>
<svg
   xmlns:dc="http://purl.org/dc/elements/1.1/"
   xmlns:cc="http://creativecommons.org/ns#"
   xmlns:rdf="http://www.w3.org/1999/02/22-rdf-syntax-ns#"
   xmlns:svg="http://www.w3.org/2000/svg"
   xmlns="http://www.w3.org/2000/svg"
   xmlns:sodipodi="http://sodipodi.sourceforge.net/DTD/sodipodi-0.dtd"
   xmlns:inkscape="http://www.inkscape.org/namespaces/inkscape"
   height="48"
   width="48"
   version="1.1"
   id="svg39"
   sodipodi:docname="preferences-desktop-launch-feedback.svg"
   inkscape:version="0.92.2 2405546, 2018-03-11">
  <metadata
     id="metadata45">
    <rdf:RDF>
      <cc:Work
         rdf:about="">
        <dc:format>image/svg+xml</dc:format>
        <dc:type
           rdf:resource="http://purl.org/dc/dcmitype/StillImage" />
      </cc:Work>
    </rdf:RDF>
  </metadata>
  <defs
     id="defs43" />
  <sodipodi:namedview
     pagecolor="#ffffff"
     bordercolor="#666666"
     borderopacity="1"
     objecttolerance="10"
     gridtolerance="10"
     guidetolerance="10"
     inkscape:pageopacity="0"
     inkscape:pageshadow="2"
     inkscape:window-width="1600"
     inkscape:window-height="838"
     id="namedview41"
     showgrid="false"
     inkscape:zoom="9.8333333"
     inkscape:cx="22.48873"
     inkscape:cy="23.373322"
     inkscape:window-x="0"
     inkscape:window-y="36"
     inkscape:window-maximized="1"
     inkscape:current-layer="svg39" />
  <linearGradient
     id="a"
     gradientTransform="matrix(0.99999996,0,0,0.97651008,-384.57146,-488.9707)"
     gradientUnits="userSpaceOnUse"
     x1="409.57144"
     x2="409.57144"
     y1="542.79797"
     y2="507.798">
    <stop
       offset="0"
       stop-color="#566069"
       id="stop2" />
    <stop
       offset="1"
       stop-color="#6c7884"
       id="stop4" />
  </linearGradient>
  <rect
     style="fill-opacity:0.66666697"
     id="rect7"
     y="7.8994923"
     x="2.0000117"
     width="44"
     ry="1.562416"
     height="33.201344" />
  <rect
     style="fill:url(#a)"
     id="rect9"
     y="6.8991566"
     x="2.0000117"
     width="44"
     ry="1.562416"
     height="33.201344" />
  <g
     style="fill:#e9ebed"
     id="g27"
     transform="matrix(0.16329794,0,0,0.16329794,12.593746,14.492429)">
    <path
       inkscape:connector-curvature="0"
       id="path11"
       d="m 29.107,92.374 c -3.26,0 -6.03,1.14 -8.311,3.422 -2.281,2.282 -3.422,5.052 -3.422,8.312 0,3.26 1.14,6.029 3.422,8.312 2.282,2.281 5.052,3.422 8.311,3.422 3.205,0 5.961,-1.141 8.27,-3.422 2.308,-2.28 3.462,-5.052 3.462,-8.312 0,-3.26 -1.154,-6.028 -3.462,-8.312 -2.309,-2.28 -5.065,-3.422 -8.27,-3.422 z" />
    <path
       inkscape:connector-curvature="0"
       id="path13"
       d="m 26.5,67.607 c 0,-3.585 -1.276,-6.653 -3.829,-9.208 -2.553,-2.553 -5.622,-3.829 -9.207,-3.829 -3.585,0 -6.654,1.276 -9.207,3.829 -2.553,2.553 -3.829,5.622 -3.829,9.208 0,3.584 1.276,6.651 3.829,9.205 2.553,2.554 5.622,3.83 9.207,3.83 3.585,0 6.654,-1.276 9.207,-3.83 2.553,-2.552 3.829,-5.621 3.829,-9.205 z" />
    <path
       inkscape:connector-curvature="0"
       id="path15"
       d="m 102.107,37.626 c 1.791,0 3.328,-0.639 4.603,-1.915 1.276,-1.277 1.915,-2.812 1.915,-4.604 0,-1.793 -0.639,-3.327 -1.915,-4.603 -1.276,-1.277 -2.812,-1.915 -4.603,-1.915 -1.793,0 -3.328,0.639 -4.604,1.915 -1.276,1.276 -1.915,2.81 -1.915,4.603 0,1.793 0.639,3.327 1.915,4.604 1.276,1.277 2.811,1.915 4.604,1.915 z" />
    <path
       inkscape:connector-curvature="0"
       id="path17"
       d="m 29.108,16.768 c -3.966,0 -7.347,1.399 -10.144,4.196 -2.798,2.797 -4.196,6.178 -4.196,10.143 0,3.966 1.398,7.346 4.196,10.144 2.798,2.798 6.179,4.196 10.144,4.196 3.965,0 7.346,-1.399 10.143,-4.196 2.797,-2.798 4.196,-6.179 4.196,-10.144 0,-3.965 -1.399,-7.346 -4.196,-10.143 -2.797,-2.797 -6.178,-4.196 -10.143,-4.196 z" />
    <path
       inkscape:connector-curvature="0"
       id="path19"
       d="m 123.29,62.066 c -1.521,-1.521 -3.367,-2.281 -5.54,-2.281 -2.173,0 -4.02,0.76 -5.54,2.281 -1.52,1.521 -2.28,3.368 -2.28,5.542 0,2.172 0.76,4.021 2.28,5.539 1.521,1.521 3.367,2.281 5.54,2.281 2.173,0 4.02,-0.76 5.54,-2.281 1.521,-1.52 2.28,-3.367 2.28,-5.539 0,-2.173 -0.758,-4.02 -2.28,-5.542 z" />
    <path
       inkscape:connector-curvature="0"
       id="path21"
       d="m 102.107,94.982 c -2.5,0 -4.646,0.896 -6.438,2.688 -1.792,1.792 -2.688,3.938 -2.688,6.438 0,2.498 0.896,4.645 2.688,6.437 1.793,1.793 3.938,2.688 6.438,2.688 2.498,0 4.644,-0.896 6.437,-2.688 1.792,-1.792 2.688,-3.938 2.688,-6.437 0,-2.5 -0.896,-4.645 -2.688,-6.438 -1.793,-1.792 -3.939,-2.688 -6.437,-2.688 z" />
    <path
       inkscape:connector-curvature="0"
       id="path23"
       d="m 65.607,109.32 c -2.879,0 -5.337,1.02 -7.375,3.057 -2.036,2.037 -3.055,4.494 -3.055,7.373 0,2.879 1.018,5.336 3.055,7.373 2.038,2.037 4.495,3.057 7.375,3.057 2.879,0 5.336,-1.02 7.373,-3.057 2.037,-2.037 3.056,-4.494 3.056,-7.373 0,-2.879 -1.019,-5.336 -3.056,-7.373 -2.037,-2.037 -4.494,-3.057 -7.373,-3.057 z" />
    <path
       inkscape:connector-curvature="0"
       id="path25"
       d="m 65.607,-0.179 c -4.345,0 -8.04,1.52 -11.082,4.562 -3.041,3.042 -4.562,6.736 -4.562,11.081 0,4.345 1.52,8.038 4.562,11.08 3.042,3.041 6.736,4.562 11.082,4.562 4.347,0 8.039,-1.52 11.08,-4.562 3.041,-3.041 4.562,-6.735 4.562,-11.08 0,-4.345 -1.521,-8.038 -4.562,-11.081 -3.041,-3.041 -6.733,-4.562 -11.08,-4.562 z" />
  </g>
  <g
     style="fill:#ffffff;fill-opacity:0.2644628"
     id="g35"
     transform="translate(-384.57143,-500.29817)">
    <circle
       id="circle29"
       r="1.7814257"
       cy="510.1976"
       cx="398.93719"
       style="fill:#ffffff;fill-opacity:0.2644628" />
    <circle
       id="circle31"
       r="1.7814257"
       cy="510.23538"
       cx="394.56079"
       style="fill:#ffffff;fill-opacity:0.2644628" />
    <circle
       id="circle33"
       r="1.7814257"
       cy="510.27756"
       cx="390.25885"
       style="fill:#ffffff;fill-opacity:0.2644628" />
  </g>
</svg>
