<?xml version="1.0" encoding="UTF-8" standalone="no"?>
<svg
   xmlns:dc="http://purl.org/dc/elements/1.1/"
   xmlns:cc="http://creativecommons.org/ns#"
   xmlns:rdf="http://www.w3.org/1999/02/22-rdf-syntax-ns#"
   xmlns:svg="http://www.w3.org/2000/svg"
   xmlns="http://www.w3.org/2000/svg"
   xmlns:sodipodi="http://sodipodi.sourceforge.net/DTD/sodipodi-0.dtd"
   xmlns:inkscape="http://www.inkscape.org/namespaces/inkscape"
   height="48"
   width="48"
   version="1.1"
   id="svg57"
   sodipodi:docname="remote-desktop.svg"
   inkscape:version="0.92.2 2405546, 2018-03-11">
  <metadata
     id="metadata63">
    <rdf:RDF>
      <cc:Work
         rdf:about="">
        <dc:format>image/svg+xml</dc:format>
        <dc:type
           rdf:resource="http://purl.org/dc/dcmitype/StillImage" />
      </cc:Work>
    </rdf:RDF>
  </metadata>
  <defs
     id="defs61" />
  <sodipodi:namedview
     pagecolor="#ffffff"
     bordercolor="#666666"
     borderopacity="1"
     objecttolerance="10"
     gridtolerance="10"
     guidetolerance="10"
     inkscape:pageopacity="0"
     inkscape:pageshadow="2"
     inkscape:window-width="1600"
     inkscape:window-height="838"
     id="namedview59"
     showgrid="false"
     inkscape:zoom="4.9166667"
     inkscape:cx="24"
     inkscape:cy="24"
     inkscape:window-x="0"
     inkscape:window-y="36"
     inkscape:window-maximized="1"
     inkscape:current-layer="svg57" />
  <linearGradient
     id="a"
     gradientTransform="matrix(0.93793686,0,0,0.87065184,-361.61627,-437.44776)"
     gradientUnits="userSpaceOnUse"
     x1="409.57144"
     x2="409.57144"
     y1="542.79797"
     y2="507.798">
    <stop
       offset="0"
       stop-color="#0a80fd"
       id="stop2" />
    <stop
       offset="1"
       stop-color="#56c5fa"
       id="stop4" />
  </linearGradient>
  <linearGradient
     id="b"
     gradientTransform="matrix(0.56675678,0,0,0.56776791,-185.30771,-268.30355)"
     gradientUnits="userSpaceOnUse"
     x1="400.5119"
     x2="393.19086"
     y1="546.07446"
     y2="468.33124">
    <stop
       offset="0"
       stop-color="#1365f4"
       id="stop7" />
    <stop
       offset="1"
       stop-color="#05b2fc"
       id="stop9" />
  </linearGradient>
  <linearGradient
     id="c"
     gradientUnits="userSpaceOnUse"
     x1="390.997076966011"
     x2="455.371856746932"
     y1="541.565593035549"
     y2="489.92736441466"
     gradientTransform="translate(-384.57143,-499.798)">
    <stop
       offset="0"
       stop-color="#2980b9"
       id="stop12" />
    <stop
       offset="1"
       stop-color="#ba174e"
       stop-opacity=".996078"
       id="stop14" />
  </linearGradient>
  <g
     style="fill-opacity:0.66666697"
     id="g37"
     transform="translate(-384.57143,-499.29799)">
    <rect
       style="fill-opacity:0.66666697"
       id="rect17"
       y="503.79276"
       x="382.51624"
       width="41.269222"
       transform="matrix(0.9999984,0.00178706,0.00604892,0.99998171,0,0)"
       ry="1.393043"
       height="29.602163" />
    <g
       style="fill-opacity:0.66666697"
       id="g35">
      <g
         style="fill-opacity:0.66666697"
         id="g27">
        <rect
           id="rect19"
           y="509.66397"
           x="389.9404"
           width="41.431"
           rx="1.791274"
           height="32.014854" />
        <circle
           id="circle21"
           r="1.943373"
           cy="513.58508"
           cx="427.7334" />
        <circle
           id="circle23"
           r="1.943373"
           cy="513.62628"
           cx="422.95914" />
        <circle
           id="circle25"
           r="1.943373"
           cy="513.6723"
           cx="418.26614" />
      </g>
      <g
         style="fill-opacity:0.66666697"
         id="g33">
        <ellipse
           style="fill-opacity:0.66666697"
           id="ellipse29"
           transform="rotate(4.8653275)"
           ry="7.9487271"
           rx="7.9345708"
           cy="499.01431"
           cx="467.29446" />
        <path
           style="fill-opacity:0.66666697"
           inkscape:connector-curvature="0"
           id="path31"
           d="m 425.23281,540.42642 c -0.18859,0 -0.37671,-0.0811 -0.51352,-0.24015 -0.35082,-0.40905 -0.85048,-0.64286 -1.3714,-0.64286 -0.52969,0 -1.01641,0.22698 -1.37047,0.63944 -0.25699,0.30019 -0.69518,0.32313 -0.97943,0.0508 -0.28381,-0.27189 -0.30553,-0.73463 -0.0481,-1.03384 0.61105,-0.71217 1.4851,-1.12073 2.39797,-1.12073 0.91149,0 1.78554,0.40954 2.39844,1.12316 0.25746,0.29971 0.23572,0.76245 -0.0481,1.03433 -0.13219,0.12739 -0.29905,0.18988 -0.46545,0.18988 z m 1.53824,-1.83191 c -0.17702,0 -0.35405,-0.0713 -0.48902,-0.2133 -0.78484,-0.82444 -1.82667,-1.27839 -2.93414,-1.27839 -1.10978,0 -2.15207,0.45298 -2.93553,1.27545 -0.27132,0.28506 -0.71042,0.2836 -0.98035,-0.003 -0.26994,-0.28653 -0.26901,-0.75024 0.003,-1.0353 1.04461,-1.09729 2.43449,-1.70158 3.91312,-1.70158 1.47631,0 2.86573,0.60526 3.91218,1.70451 0.27178,0.28506 0.27271,0.74877 0.003,1.03578 -0.13543,0.14302 -0.31385,0.21575 -0.4918,0.21575 z m 1.53503,-1.82898 c -0.17242,0 -0.34528,-0.0678 -0.47979,-0.20355 -1.21054,-1.22517 -2.80056,-1.89975 -4.4784,-1.89975 -1.68108,0 -3.27203,0.67359 -4.47933,1.8978 -0.27594,0.27969 -0.71505,0.27042 -0.98035,-0.0214 -0.26531,-0.2919 -0.25607,-0.75561 0.0198,-1.03531 1.46708,-1.4868 3.39867,-2.30538 5.43982,-2.30538 2.03698,0 3.96811,0.81956 5.43796,2.30684 0.2764,0.2797 0.28564,0.74341 0.0208,1.0353 -0.13635,0.14986 -0.31847,0.22552 -0.50057,0.22552 z m -5.04509,5.43235 c 0.46256,0 0.83754,-0.37569 0.83754,-0.83912 0,-0.46343 -0.37498,-0.83911 -0.83754,-0.83911 -0.46255,0 -0.83753,0.37568 -0.83753,0.83911 0,0.46343 0.37498,0.83912 0.83753,0.83912 z" />
      </g>
    </g>
  </g>
  <rect
     style="fill:url(#a)"
     id="rect39"
     y="4.6674838"
     x="0.96336371"
     width="41.269222"
     transform="matrix(0.9999984,0.00178706,0.00604892,0.99998171,0,0)"
     ry="1.393043"
     height="29.602163" />
  <rect
     style="fill:url(#c)"
     id="rect41"
     y="9.8659706"
     x="5.368969"
     width="41.431"
     rx="1.791274"
     height="32.014854" />
  <g
     style="fill:#ffffff;fill-opacity:0.24793388"
     id="g49"
     transform="translate(-384.57143,-499.798)">
    <circle
       id="circle43"
       r="1.943373"
       cy="513.58508"
       cx="403.48206"
       style="fill:#ffffff;fill-opacity:0.24793388" />
    <circle
       id="circle45"
       r="1.943373"
       cy="513.62628"
       cx="398.70779"
       style="fill:#ffffff;fill-opacity:0.24793388" />
    <circle
       id="circle47"
       r="1.943373"
       cy="513.6723"
       cx="394.0148"
       style="fill:#ffffff;fill-opacity:0.24793388" />
  </g>
  <ellipse
     style="fill:url(#b)"
     id="ellipse51"
     transform="rotate(4.8653275)"
     ry="7.9487271"
     rx="7.9345708"
     cy="33.634216"
     cx="41.718868" />
  <path
     style="fill:#ffffff;fill-opacity:0.87244897"
     inkscape:connector-curvature="0"
     id="path53"
     d="m 40.66138,40.62842 c -0.18859,0 -0.37671,-0.0811 -0.51352,-0.24015 -0.35082,-0.40905 -0.85048,-0.64286 -1.3714,-0.64286 -0.52969,0 -1.01641,0.22698 -1.37047,0.63944 -0.25699,0.30019 -0.69518,0.32313 -0.97943,0.0508 -0.28381,-0.27189 -0.30553,-0.73463 -0.0481,-1.03384 0.61105,-0.71217 1.4851,-1.12073 2.39797,-1.12073 0.91149,0 1.78554,0.40954 2.39844,1.12316 0.25746,0.29971 0.23572,0.76245 -0.0481,1.03433 -0.13219,0.12739 -0.29905,0.18988 -0.46545,0.18988 z m 1.53824,-1.83191 c -0.17702,0 -0.35405,-0.0713 -0.48902,-0.2133 -0.78484,-0.82444 -1.82667,-1.27839 -2.93414,-1.27839 -1.10978,0 -2.15207,0.45298 -2.93553,1.27545 -0.27132,0.28506 -0.71042,0.2836 -0.98035,-0.003 -0.26994,-0.28653 -0.26901,-0.75024 0.003,-1.0353 1.04461,-1.09729 2.43449,-1.70158 3.91312,-1.70158 1.47631,0 2.86573,0.60526 3.91218,1.70451 0.27178,0.28506 0.27271,0.74877 0.003,1.03578 -0.13543,0.14302 -0.31385,0.21575 -0.4918,0.21575 z m 1.53503,-1.82898 c -0.17242,0 -0.34528,-0.0678 -0.47979,-0.20355 -1.21054,-1.22517 -2.80056,-1.89975 -4.4784,-1.89975 -1.68108,0 -3.27203,0.67359 -4.47933,1.8978 -0.27594,0.27969 -0.71505,0.27042 -0.98035,-0.0214 -0.26531,-0.2919 -0.25607,-0.75561 0.0198,-1.03531 1.46708,-1.4868 3.39867,-2.30538 5.43982,-2.30538 2.03698,0 3.96811,0.81956 5.43796,2.30684 0.2764,0.2797 0.28564,0.74341 0.0208,1.0353 -0.13635,0.14986 -0.31847,0.22552 -0.50057,0.22552 z m -5.04509,5.43235 c 0.46256,0 0.83754,-0.37569 0.83754,-0.83912 0,-0.46343 -0.37498,-0.83911 -0.83754,-0.83911 -0.46255,0 -0.83753,0.37568 -0.83753,0.83911 0,0.46343 0.37498,0.83912 0.83753,0.83912 z" />
</svg>
