<?xml version="1.0" encoding="UTF-8" standalone="no"?>
<svg
   xmlns:dc="http://purl.org/dc/elements/1.1/"
   xmlns:cc="http://creativecommons.org/ns#"
   xmlns:rdf="http://www.w3.org/1999/02/22-rdf-syntax-ns#"
   xmlns:svg="http://www.w3.org/2000/svg"
   xmlns="http://www.w3.org/2000/svg"
   xmlns:sodipodi="http://sodipodi.sourceforge.net/DTD/sodipodi-0.dtd"
   xmlns:inkscape="http://www.inkscape.org/namespaces/inkscape"
   height="48"
   width="48"
   version="1.1"
   id="svg31"
   sodipodi:docname="terminix.svg"
   inkscape:version="0.92.2 2405546, 2018-03-11">
  <metadata
     id="metadata37">
    <rdf:RDF>
      <cc:Work
         rdf:about="">
        <dc:format>image/svg+xml</dc:format>
        <dc:type
           rdf:resource="http://purl.org/dc/dcmitype/StillImage" />
      </cc:Work>
    </rdf:RDF>
  </metadata>
  <defs
     id="defs35" />
  <sodipodi:namedview
     pagecolor="#ffffff"
     bordercolor="#666666"
     borderopacity="1"
     objecttolerance="10"
     gridtolerance="10"
     guidetolerance="10"
     inkscape:pageopacity="0"
     inkscape:pageshadow="2"
     inkscape:window-width="1600"
     inkscape:window-height="838"
     id="namedview33"
     showgrid="false"
     inkscape:zoom="9.8333333"
     inkscape:cx="23.204828"
     inkscape:cy="25.395245"
     inkscape:window-x="0"
     inkscape:window-y="36"
     inkscape:window-maximized="1"
     inkscape:current-layer="svg31" />
  <linearGradient
     id="a"
     gradientTransform="matrix(1.0000001,0,0,1.2807771,-384.57148,-648.37598)"
     gradientUnits="userSpaceOnUse"
     x1="409.57144"
     x2="409.57144"
     y1="542.79797"
     y2="507.798">
    <stop
       offset="0"
       stop-color="#2a2c2f"
       id="stop2" />
    <stop
       offset="1"
       stop-color="#424649"
       id="stop4" />
  </linearGradient>
  <rect
     style="fill-opacity:0.66666697"
     id="rect7"
     y="2.9995768"
     x="2.0000117"
     width="44"
     ry="2.0492439"
     height="43.546417" />
  <rect
     style="fill:url(#a)"
     id="rect9"
     y="2.0000041"
     x="2.0000117"
     width="44"
     ry="2.0492439"
     height="43.546417" />
  <path
     d="m 16.29727,19.77454 c -0.0387,-0.0366 -0.0884,-0.0549 -0.14884,-0.0549 H 9.93309 c -0.0604,0 -0.11006,0.0184 -0.14892,0.0549 -0.0389,0.0366 -0.0582,0.0833 -0.0582,0.14023 V 20.305 c 0,0.0568 0.0193,0.10365 0.0582,0.14016 0.0389,0.0365 0.0885,0.0549 0.14892,0.0549 h 6.21534 c 0.0604,0 0.11006,-0.0184 0.14884,-0.0549 0.0389,-0.0365 0.0582,-0.0833 0.0582,-0.14016 v -0.39023 c 7e-5,-0.0569 -0.0193,-0.10363 -0.0582,-0.14023 z"
     id="path11"
     inkscape:connector-curvature="0"
     style="fill:#ffffff;stroke-width:0.89073402" />
  <path
     d="m 6.35281,14.00706 c -0.0432,-0.0405 -0.0928,-0.061 -0.14892,-0.061 -0.0561,0 -0.1057,0.0204 -0.14883,0.061 l -0.32375,0.30486 c -0.0432,0.0406 -0.0647,0.0874 -0.0647,0.14023 0,0.0529 0.0215,0.0996 0.0647,0.14023 l 2.54446,2.39597 -2.54446,2.39603 c -0.0432,0.0406 -0.0647,0.0874 -0.0647,0.14016 0,0.0529 0.0215,0.0996 0.0647,0.14023 l 0.32375,0.30478 c 0.0432,0.0406 0.0927,0.0609 0.14883,0.0609 0.0561,0 0.10577,-0.0203 0.14892,-0.0609 l 3.01703,-2.84098 c 0.0432,-0.0406 0.0648,-0.0875 0.0648,-0.14031 0,-0.0528 -0.0216,-0.0996 -0.0648,-0.14022 z"
     id="path13"
     inkscape:connector-curvature="0"
     style="fill:#ffffff;stroke-width:0.89073402" />
  <path
     d="m 34.94181,19.77454 c -0.0388,-0.0366 -0.0885,-0.0549 -0.14883,-0.0549 h -6.21535 c -0.0604,0 -0.11005,0.0184 -0.14892,0.0549 -0.0387,0.0366 -0.0582,0.0833 -0.0582,0.14023 V 20.305 c 0,0.0568 0.0193,0.10365 0.0582,0.14016 0.0389,0.0365 0.0885,0.0549 0.14892,0.0549 h 6.21535 c 0.0604,0 0.11005,-0.0184 0.14883,-0.0549 0.0388,-0.0365 0.0582,-0.0833 0.0582,-0.14016 v -0.39023 c 7e-5,-0.0569 -0.0193,-0.10363 -0.0582,-0.14023 z"
     id="path15"
     inkscape:connector-curvature="0"
     style="fill:#ffffff;stroke-width:0.89073402" />
  <path
     d="m 24.99736,14.00706 c -0.0432,-0.0405 -0.0928,-0.061 -0.14893,-0.061 -0.056,0 -0.10569,0.0204 -0.14883,0.061 l -0.32374,0.30486 c -0.0432,0.0406 -0.0648,0.0874 -0.0648,0.14023 0,0.0529 0.0215,0.0996 0.0648,0.14023 l 2.54446,2.39597 -2.54446,2.39603 c -0.0432,0.0406 -0.0648,0.0874 -0.0648,0.14016 0,0.0529 0.0215,0.0996 0.0648,0.14023 l 0.32374,0.30478 c 0.0432,0.0406 0.0927,0.0609 0.14883,0.0609 0.0562,0 0.10577,-0.0203 0.14893,-0.0609 l 3.01703,-2.84098 c 0.0432,-0.0406 0.0648,-0.0875 0.0648,-0.14031 0,-0.0528 -0.0215,-0.0996 -0.0648,-0.14022 z"
     id="path17"
     inkscape:connector-curvature="0"
     style="fill:#ffffff;stroke-width:0.89073402" />
  <g
     style="fill:#ffffff;fill-opacity:0.27272728"
     id="g25"
     transform="translate(-384.57143,-499.798)">
    <circle
       cx="398.93719"
       cy="505.53659"
       r="1.7814257"
       id="circle19"
       style="fill:#ffffff;fill-opacity:0.27272728" />
    <circle
       cx="394.56079"
       cy="505.57437"
       r="1.7814257"
       id="circle21"
       style="fill:#ffffff;fill-opacity:0.27272728" />
    <circle
       cx="390.25885"
       cy="505.61658"
       r="1.7814257"
       id="circle23"
       style="fill:#ffffff;fill-opacity:0.27272728" />
  </g>
</svg>
