<?xml version="1.0" encoding="UTF-8" standalone="no"?>
<svg
   xmlns:dc="http://purl.org/dc/elements/1.1/"
   xmlns:cc="http://creativecommons.org/ns#"
   xmlns:rdf="http://www.w3.org/1999/02/22-rdf-syntax-ns#"
   xmlns:svg="http://www.w3.org/2000/svg"
   xmlns="http://www.w3.org/2000/svg"
   xmlns:sodipodi="http://sodipodi.sourceforge.net/DTD/sodipodi-0.dtd"
   xmlns:inkscape="http://www.inkscape.org/namespaces/inkscape"
   height="48"
   width="48"
   version="1.1"
   id="svg87"
   sodipodi:docname="utilities-log-viewer.svg"
   inkscape:version="0.92.2 2405546, 2018-03-11">
  <metadata
     id="metadata93">
    <rdf:RDF>
      <cc:Work
         rdf:about="">
        <dc:format>image/svg+xml</dc:format>
        <dc:type
           rdf:resource="http://purl.org/dc/dcmitype/StillImage" />
      </cc:Work>
    </rdf:RDF>
  </metadata>
  <defs
     id="defs91" />
  <sodipodi:namedview
     pagecolor="#ffffff"
     bordercolor="#666666"
     borderopacity="1"
     objecttolerance="10"
     gridtolerance="10"
     guidetolerance="10"
     inkscape:pageopacity="0"
     inkscape:pageshadow="2"
     inkscape:window-width="1600"
     inkscape:window-height="838"
     id="namedview89"
     showgrid="false"
     inkscape:zoom="13.906433"
     inkscape:cx="26.148232"
     inkscape:cy="27.101376"
     inkscape:window-x="0"
     inkscape:window-y="36"
     inkscape:window-maximized="1"
     inkscape:current-layer="svg87" />
  <linearGradient
     id="a"
     gradientTransform="matrix(0.99999999,0,0,0.97651009,-51.385497,17.337404)"
     gradientUnits="userSpaceOnUse"
     x1="409.57144"
     x2="409.57144"
     y1="542.79797"
     y2="507.798">
    <stop
       offset="0"
       stop-color="#2e3436"
       id="stop2" />
    <stop
       offset="1"
       stop-color="#555753"
       id="stop4" />
  </linearGradient>
  <g
     id="g11"
     transform="translate(-333.18595,-506.3081)">
    <rect
       style="fill-opacity:0.66666697"
       id="rect7"
       y="514.20758"
       x="335.18594"
       width="44"
       ry="1.562416"
       height="33.201344" />
    <rect
       style="fill:url(#a)"
       id="rect9"
       y="513.20728"
       x="335.18594"
       width="44"
       ry="1.562416"
       height="33.201344" />
  </g>
  <g
     id="g75"
     transform="matrix(0.83640027,0,0,0.83640027,-317.45406,-413.31103)">
    <circle
       style="fill:#eff0f1"
       id="circle13"
       r="3.499974"
       cy="533.29797"
       cx="395.07144" />
    <circle
       style="fill:#3daefd"
       id="circle15"
       r="2.5"
       cy="533.29797"
       cx="395.07144" />
    <circle
       style="fill:#eff0f1"
       id="circle17"
       r="3.499974"
       cy="524.29797"
       cx="395.07144" />
    <circle
       style="fill:#3daefd"
       id="circle19"
       r="2.5"
       cy="524.29797"
       cx="395.07144" />
    <path
       style="fill:#da4453"
       inkscape:connector-curvature="0"
       id="path21"
       d="m 399.57144,513.79797 h 2 v 1 h -2 z" />
    <path
       style="fill:#da4453"
       inkscape:connector-curvature="0"
       id="path23"
       d="m 402.57144,513.79797 h 3 v 1 h -3 z" />
    <path
       style="fill:#e5fdff"
       inkscape:connector-curvature="0"
       id="path25"
       d="m 408.57144,513.79797 h 3.00001 v 1 h -3.00001 z" />
    <path
       style="fill:#e5fdff"
       inkscape:connector-curvature="0"
       id="path27"
       d="m 413.57144,513.79797 h 6 v 1 h -6 z" />
    <path
       style="fill:#e5fdff"
       inkscape:connector-curvature="0"
       id="path29"
       d="m 420.57144,513.79797 h 3.99999 v 1 h -3.99999 z" />
    <path
       style="fill:#bdc3c7"
       inkscape:connector-curvature="0"
       id="path31"
       d="m 399.57144,515.79797 h 4 v 1 h -4 z" />
    <path
       style="fill:#bdc3c7"
       inkscape:connector-curvature="0"
       id="path33"
       d="m 404.57144,515.79797 h 2 v 1 h -2 z" />
    <path
       style="fill:#e5fdff"
       inkscape:connector-curvature="0"
       id="path35"
       d="m 408.57144,515.79797 h 8.00001 v 1 h -8.00001 z" />
    <path
       style="fill:#3daefd"
       inkscape:connector-curvature="0"
       id="path37"
       d="m 399.57144,522.79797 h 2 v 1 h -2 z" />
    <path
       style="fill:#3daefd"
       inkscape:connector-curvature="0"
       id="path39"
       d="m 402.57144,522.79797 h 3 v 1 h -3 z" />
    <path
       style="fill:#e5fdff"
       inkscape:connector-curvature="0"
       id="path41"
       d="m 408.57144,522.79797 h 4.00001 v 1 h -4.00001 z" />
    <path
       style="fill:#e5fdff"
       inkscape:connector-curvature="0"
       id="path43"
       d="m 414.57144,522.79797 h 4 v 1 h -4 z" />
    <path
       style="fill:#e5fdff"
       inkscape:connector-curvature="0"
       id="path45"
       d="m 419.57144,522.79797 h 4.99999 v 1 h -4.99999 z" />
    <path
       style="fill:#bdc3c7"
       inkscape:connector-curvature="0"
       id="path47"
       d="m 399.57144,524.79797 h 2.99999 v 1 h -2.99999 z" />
    <path
       style="fill:#e5fdff"
       inkscape:connector-curvature="0"
       id="path49"
       d="m 408.57144,524.79797 h 3 v 1 h -3 z" />
    <path
       style="fill:#e5fdff"
       inkscape:connector-curvature="0"
       id="path51"
       d="m 412.57144,524.79797 h 1 v 1 h -1 z" />
    <path
       style="fill:#e5fdff"
       inkscape:connector-curvature="0"
       id="path53"
       d="m 414.57144,524.79797 h 5 v 1 h -5 z" />
    <g
       id="g69"
       transform="scale(-1,1)">
      <path
         style="fill:#e5fdff"
         inkscape:connector-curvature="0"
         id="path55"
         d="m -419.57144,533.79797 h 2 v 1 h -2 z" />
      <path
         style="fill:#e5fdff"
         inkscape:connector-curvature="0"
         id="path57"
         d="m -416.57144,533.79797 h 8.00001 v 1 h -8.00001 z" />
      <path
         style="fill:#bdc3c7"
         inkscape:connector-curvature="0"
         id="path59"
         d="m -406.57144,533.79797 h 6.99999 v 1 h -6.99999 z" />
      <path
         style="fill:#e5fdff"
         inkscape:connector-curvature="0"
         id="path61"
         d="m -424.57144,531.79797 h 2 v 1 h -2 z" />
      <path
         style="fill:#e5fdff"
         inkscape:connector-curvature="0"
         id="path63"
         d="m -421.57144,531.79797 h 3 v 1 h -3 z" />
      <path
         style="fill:#e5fdff"
         inkscape:connector-curvature="0"
         id="path65"
         d="m -417.57144,531.79797 h 9.00001 v 1 h -9.00001 z" />
      <path
         style="fill:#3daefd"
         inkscape:connector-curvature="0"
         id="path67"
         d="m -404.57144,531.79797 h 4.99999 v 1 h -4.99999 z" />
    </g>
    <path
       style="fill:#eff0f1;fill-rule:evenodd"
       inkscape:connector-curvature="0"
       id="path71"
       d="m 395.07227,511.7207 -3.50084,1.4668 c 0,0 0.41627,1.90215 0.86682,3.00391 0.22527,0.55088 0.50035,1.12129 0.88919,1.61718 0.38884,0.4959 0.96497,0.99024 1.74483,0.99024 0.77985,0 1.35412,-0.49434 1.74296,-0.99024 0.38883,-0.49589 0.66392,-1.0663 0.88919,-1.61718 0.45055,-1.10176 0.86868,-3.00391 0.86868,-3.00391 z" />
    <path
       style="fill:#da4453;fill-rule:evenodd"
       inkscape:connector-curvature="0"
       id="path73"
       d="m 392.57143,513.798 2.5,-1 2.5,1 c 0,0 -0.92767,4 -2.5,4 -1.57233,0 -2.5,-4 -2.5,-4 z" />
  </g>
  <g
     style="fill:#eff0f1;fill-opacity:0.35537189"
     id="g83"
     transform="translate(-333.18595,-505.80795)">
    <circle
       id="circle77"
       r="1.7814257"
       cy="516.20752"
       cx="347.5517"
       style="fill:#eff0f1;fill-opacity:0.35537189" />
    <circle
       id="circle79"
       r="1.7814257"
       cy="516.24536"
       cx="343.17532"
       style="fill:#eff0f1;fill-opacity:0.35537189" />
    <circle
       id="circle81"
       r="1.7814257"
       cy="516.28754"
       cx="338.87338"
       style="fill:#eff0f1;fill-opacity:0.35537189" />
  </g>
</svg>
