<?xml version="1.0" encoding="UTF-8" standalone="no"?>
<svg
   xmlns:dc="http://purl.org/dc/elements/1.1/"
   xmlns:cc="http://creativecommons.org/ns#"
   xmlns:rdf="http://www.w3.org/1999/02/22-rdf-syntax-ns#"
   xmlns:svg="http://www.w3.org/2000/svg"
   xmlns="http://www.w3.org/2000/svg"
   xmlns:sodipodi="http://sodipodi.sourceforge.net/DTD/sodipodi-0.dtd"
   xmlns:inkscape="http://www.inkscape.org/namespaces/inkscape"
   height="48"
   width="48"
   version="1.1"
   id="svg29"
   sodipodi:docname="wingpanel.svg"
   inkscape:version="0.92.2 2405546, 2018-03-11">
  <metadata
     id="metadata35">
    <rdf:RDF>
      <cc:Work
         rdf:about="">
        <dc:format>image/svg+xml</dc:format>
        <dc:type
           rdf:resource="http://purl.org/dc/dcmitype/StillImage" />
      </cc:Work>
    </rdf:RDF>
  </metadata>
  <defs
     id="defs33" />
  <sodipodi:namedview
     pagecolor="#ffffff"
     bordercolor="#666666"
     borderopacity="1"
     objecttolerance="10"
     gridtolerance="10"
     guidetolerance="10"
     inkscape:pageopacity="0"
     inkscape:pageshadow="2"
     inkscape:window-width="1600"
     inkscape:window-height="838"
     id="namedview31"
     showgrid="false"
     inkscape:zoom="13.906433"
     inkscape:cx="37.58596"
     inkscape:cy="29.603379"
     inkscape:window-x="0"
     inkscape:window-y="36"
     inkscape:window-maximized="1"
     inkscape:current-layer="svg29" />
  <linearGradient
     gradientUnits="userSpaceOnUse"
     x1="0"
     x2="47"
     y1="23.5"
     y2="23.5"
     id="linearGradient8">
    <stop
       offset="0"
       stop-color="#a9a3d4"
       id="stop2" />
    <stop
       offset=".47001833"
       stop-color="#87baff"
       id="stop4" />
    <stop
       offset="1"
       stop-color="#89ec85"
       id="stop6" />
  </linearGradient>
  <linearGradient
     id="a"
     gradientTransform="matrix(1.0454545,0,0,1.0208969,-403.14284,-511.76466)"
     gradientUnits="userSpaceOnUse"
     x1="409.57144"
     x2="409.93887"
     y1="542.79797"
     y2="501.2316">
    <stop
       offset="0"
       stop-color="#197cf1"
       id="stop10" />
    <stop
       offset="1"
       stop-color="#20bcfa"
       id="stop12" />
  </linearGradient>
  <rect
     height="34.710491"
     ry="1.6334354"
     width="45.999996"
     x="1.0000021"
     y="6.6447434"
     id="rect15"
     style="opacity:1;fill:url(#a);stroke:none;stroke-width:1.5677098" />
  <circle
     cx="43.316109"
     cy="10.389342"
     r="1.8623995"
     id="circle17"
     style="opacity:1;fill:#ffffff;fill-opacity:0.36776859;stroke:none;stroke-width:0.35578215" />
  <circle
     cx="38.740795"
     cy="10.42885"
     r="1.8623995"
     id="circle19"
     style="opacity:1;fill:#ffffff;fill-opacity:0.36776859;stroke:none;stroke-width:0.35578215" />
  <circle
     cx="34.243336"
     cy="10.47294"
     r="1.8623995"
     id="circle21"
     style="opacity:1;fill:#ffffff;fill-opacity:0.36776859;stroke:none;stroke-width:0.35578215" />
  <path
     style="fill:#ffffff;stroke:#ffffff;stroke-width:0.35578215"
     inkscape:connector-curvature="0"
     id="path25"
     d="m 24.000003,15.177874 c -5.976885,0 -10.822107,4.845224 -10.822107,10.822107 0,5.976896 4.845222,10.822111 10.822107,10.822111 5.976883,0 10.822106,-4.845215 10.822106,-10.822111 0,-5.976883 -4.845223,-10.822107 -10.822106,-10.822107 z m 0,0.901843 c 4.54411,0 8.374646,3.055387 9.549381,7.223756 -1.011799,2.086946 -2.451518,3.965936 -4.20484,5.484332 -0.842274,0.72941 -1.761869,1.379661 -2.777673,1.837503 -1.015805,0.457843 -2.133115,0.717619 -3.245505,0.653836 -0.83576,-0.04793 -1.661356,-0.280743 -2.393263,-0.686527 1.939686,-1.051052 3.689829,-2.452418 5.122464,-4.130442 0.940351,-1.101422 1.763088,-2.353152 2.079873,-3.766319 0.158392,-0.706582 0.185234,-1.446577 0.0372,-2.155403 -0.148033,-0.708825 -0.475764,-1.384305 -0.971734,-1.911905 -0.484533,-0.515432 -1.120613,-0.880543 -1.802557,-1.068683 -0.681944,-0.188138 -1.407652,-0.202705 -2.103547,-0.07553 -1.391791,0.254351 -2.634406,1.063236 -3.631042,2.067473 -1.756717,1.770113 -2.842738,4.267777 -2.643525,6.753671 0.09961,1.242946 0.516135,2.464311 1.229887,3.486752 0.15932,0.228211 0.334471,0.4456 0.521941,0.651581 -1.039785,0.363893 -2.116397,0.622925 -3.208303,0.76882 -0.937477,-1.514824 -1.479022,-3.300291 -1.479022,-5.212652 0,-5.478811 4.441454,-9.920264 9.920265,-9.920264 z m 0.06313,2.004344 c 0.697354,9.02e-4 1.399448,0.212061 1.95587,0.632417 0.501309,0.378722 0.872764,0.917514 1.083338,1.509458 0.210573,0.591944 0.264613,1.234762 0.192769,1.858922 -0.14369,1.248323 -0.773433,2.393133 -1.534259,3.393182 -1.347139,1.77071 -3.137755,3.187949 -5.129228,4.180043 -0.203843,0.101547 -0.410917,0.198067 -0.618889,0.290844 -0.433329,-0.379202 -0.80474,-0.828974 -1.087847,-1.330222 -0.591563,-1.047391 -0.786645,-2.291586 -0.671873,-3.489002 0.114772,-1.197414 0.525695,-2.351468 1.077702,-3.420237 0.640027,-1.239187 1.512439,-2.412966 2.733709,-3.086554 0.610635,-0.336793 1.301352,-0.539796 1.998708,-0.538851 z m 9.768078,6.587957 c 0.05812,0.434417 0.08906,0.877639 0.08906,1.327963 0,5.478808 -4.441453,9.920268 -9.920264,9.920268 -3.076956,0 -5.826902,-1.400741 -7.646495,-3.599477 1.123105,-0.255086 2.220803,-0.621482 3.273687,-1.087847 0.460434,0.350658 0.96893,0.638256 1.509459,0.845477 1.556616,0.596771 3.323896,0.51042 4.899258,-0.03495 1.575361,-0.545366 2.972352,-1.524248 4.190184,-2.662689 1.450752,-1.356195 2.673928,-2.954694 3.605114,-4.708748 z" />
</svg>
