<?xml version="1.0" encoding="UTF-8" standalone="no"?>
<svg
   xmlns:dc="http://purl.org/dc/elements/1.1/"
   xmlns:cc="http://creativecommons.org/ns#"
   xmlns:rdf="http://www.w3.org/1999/02/22-rdf-syntax-ns#"
   xmlns:svg="http://www.w3.org/2000/svg"
   xmlns="http://www.w3.org/2000/svg"
   xmlns:sodipodi="http://sodipodi.sourceforge.net/DTD/sodipodi-0.dtd"
   xmlns:inkscape="http://www.inkscape.org/namespaces/inkscape"
   height="48"
   width="48"
   version="1.1"
   id="svg23"
   sodipodi:docname="workspace-switcher.svg"
   inkscape:version="0.92.2 2405546, 2018-03-11">
  <metadata
     id="metadata29">
    <rdf:RDF>
      <cc:Work
         rdf:about="">
        <dc:format>image/svg+xml</dc:format>
        <dc:type
           rdf:resource="http://purl.org/dc/dcmitype/StillImage" />
      </cc:Work>
    </rdf:RDF>
  </metadata>
  <defs
     id="defs27" />
  <sodipodi:namedview
     pagecolor="#ffffff"
     bordercolor="#666666"
     borderopacity="1"
     objecttolerance="10"
     gridtolerance="10"
     guidetolerance="10"
     inkscape:pageopacity="0"
     inkscape:pageshadow="2"
     inkscape:window-width="1600"
     inkscape:window-height="838"
     id="namedview25"
     showgrid="false"
     inkscape:zoom="13.906433"
     inkscape:cx="13.251002"
     inkscape:cy="26.178018"
     inkscape:window-x="0"
     inkscape:window-y="36"
     inkscape:window-maximized="1"
     inkscape:current-layer="svg23" />
  <linearGradient
     id="a"
     gradientTransform="matrix(0.99999999,0,0,0.97651005,-384.57155,-488.97071)"
     gradientUnits="userSpaceOnUse"
     x1="409.57144"
     x2="409.57144"
     y1="542.79797"
     y2="507.798">
    <stop
       offset="0"
       stop-color="#566069"
       id="stop2" />
    <stop
       offset="1"
       stop-color="#6c7884"
       id="stop4" />
  </linearGradient>
  <rect
     style="fill-opacity:0.66666697;stroke-width:0.65762758"
     id="rect7"
     y="7.8994942"
     x="1.9999958"
     width="44"
     ry="1.5624161"
     height="33.201344" />
  <rect
     style="fill:url(#a);stroke-width:0.65762758"
     id="rect9"
     y="6.8991652"
     x="1.9999958"
     width="44"
     ry="1.5624161"
     height="33.201344" />
  <path
     d="M 34.829967,15.131514 C 34.65129,14.952836 34.439337,14.863136 34.194831,14.863136 H 14.326046 c -0.244506,0 -0.456459,0.08898 -0.635137,0.268378 -0.178677,0.178677 -0.268378,0.390631 -0.268378,0.635137 v 19.868712 c 0,0.244506 0.0897,0.456459 0.268378,0.635137 0.178678,0.178677 0.390631,0.268377 0.635137,0.268377 h 19.868785 c 0.244506,0 0.456459,-0.0897 0.635136,-0.268377 0.178678,-0.178678 0.267655,-0.390631 0.267655,-0.635137 V 15.766651 c 0,-0.244506 -0.08898,-0.45646 -0.267655,-0.635137 z M 23.357575,32.022751 c 0,0.131657 -0.0434,0.240166 -0.126593,0.324803 -0.08464,0.08464 -0.193146,0.127316 -0.324803,0.127316 h -6.773393 c -0.131657,0 -0.240166,-0.0434 -0.324802,-0.127316 -0.08464,-0.08464 -0.127317,-0.192422 -0.127317,-0.324803 V 17.572595 c 0,-0.131657 0.0434,-0.240166 0.127317,-0.324803 0.08464,-0.08464 0.192421,-0.127316 0.324802,-0.127316 h 6.773393 c 0.131657,0 0.240166,0.0434 0.324803,0.127316 0.08464,0.08464 0.126593,0.192422 0.126593,0.324803 z m 9.482852,-5.418845 c 0,0.131657 -0.0434,0.240166 -0.127317,0.324803 -0.08464,0.08464 -0.192422,0.127316 -0.324079,0.127316 h -6.773248 c -0.132381,0 -0.240166,-0.0434 -0.324803,-0.127316 -0.08464,-0.08464 -0.126593,-0.192422 -0.126593,-0.324803 v -9.031311 c 0,-0.131657 0.0434,-0.240166 0.126593,-0.324803 0.08464,-0.08464 0.192422,-0.127316 0.324803,-0.127316 h 6.773248 c 0.131657,0 0.240166,0.0434 0.324079,0.127316 0.08464,0.08464 0.127317,0.192422 0.127317,0.324803 z"
     id="path11"
     inkscape:connector-curvature="0"
     style="fill:#ffffff;fill-opacity:0.84693903;stroke-width:0.17320201" />
  <circle
     cx="14.365755"
     cy="10.399595"
     r="1.7814258"
     id="circle13"
     style="fill:#ffffff;fill-opacity:0.37190083;stroke-width:0.65762758" />
  <circle
     cx="9.9893646"
     cy="10.437386"
     r="1.7814258"
     id="circle15"
     style="fill:#ffffff;fill-opacity:0.37190083;stroke-width:0.65762758" />
  <circle
     cx="5.6874309"
     cy="10.47957"
     r="1.7814258"
     id="circle17"
     style="fill:#ffffff;fill-opacity:0.37190083;stroke-width:0.65762758" />
</svg>
